<svg width="52" height="52" viewBox="0 0 52 52" fill="none" xmlns="http://www.w3.org/2000/svg">
<path d="M39 17.3333C42.5899 17.3333 45.5 14.4232 45.5 10.8333C45.5 7.24348 42.5899 4.33333 39 4.33333C35.4101 4.33333 32.5 7.24348 32.5 10.8333C32.5 14.4232 35.4101 17.3333 39 17.3333Z" stroke="#9852F2" stroke-width="4"/>
<path d="M39 47.6667C42.5899 47.6667 45.5 44.7565 45.5 41.1667C45.5 37.5768 42.5899 34.6667 39 34.6667C35.4101 34.6667 32.5 37.5768 32.5 41.1667C32.5 44.7565 35.4101 47.6667 39 47.6667Z" stroke="#9852F2" stroke-width="4"/>
<path d="M13 32.5C16.5899 32.5 19.5 29.5899 19.5 26C19.5 22.4101 16.5899 19.5 13 19.5C9.41015 19.5 6.5 22.4101 6.5 26C6.5 29.5899 9.41015 32.5 13 32.5Z" stroke="#9852F2" stroke-width="4"/>
<path d="M33.3838 14.1093L18.6201 22.7218M33.3838 37.8907L18.6201 29.2782" stroke="#9852F2" stroke-width="4" stroke-linecap="round" stroke-linejoin="round"/>
</svg>
