<svg width="54" height="54" viewBox="0 0 54 54" fill="none" xmlns="http://www.w3.org/2000/svg">
<path d="M46.4062 5.90625H7.59375C6.66035 5.90625 5.90625 6.66035 5.90625 7.59375V46.4062C5.90625 47.3396 6.66035 48.0938 7.59375 48.0938H46.4062C47.3396 48.0938 48.0938 47.3396 48.0938 46.4062V7.59375C48.0938 6.66035 47.3396 5.90625 46.4062 5.90625ZM44.2969 44.2969H9.70312V9.70312H44.2969V44.2969ZM17.9297 36.0176V40.0781C17.9297 40.3102 18.1195 40.5 18.3516 40.5H20.8828C21.1148 40.5 21.3047 40.3102 21.3047 40.0781V36.0176C20.7721 36.1916 20.2078 36.2812 19.6172 36.2812C19.0266 36.2812 18.4623 36.1863 17.9297 36.0176ZM21.3047 25.5762V13.9219C21.3047 13.6898 21.1148 13.5 20.8828 13.5H18.3516C18.1195 13.5 17.9297 13.6898 17.9297 13.9219V25.5762C18.4623 25.4021 19.0266 25.3125 19.6172 25.3125C20.2078 25.3125 20.7721 25.4074 21.3047 25.5762ZM17.9297 36.0176C18.4623 36.1916 19.0266 36.2812 19.6172 36.2812C20.2078 36.2812 20.7721 36.1863 21.3047 36.0176C23.509 35.3057 25.1016 33.2385 25.1016 30.7969C25.1016 28.3553 23.509 26.2881 21.3047 25.5762C20.7721 25.4021 20.2078 25.3125 19.6172 25.3125C19.0266 25.3125 18.4623 25.4074 17.9297 25.5762C15.7254 26.2881 14.1328 28.3553 14.1328 30.7969C14.1328 33.2385 15.7254 35.3057 17.9297 36.0176ZM17.935 29.9162C17.9508 29.8846 17.9719 29.8529 17.9877 29.8213V29.816L18.051 29.7211C18.0562 29.7105 18.0615 29.7053 18.0668 29.6947C18.0826 29.6684 18.1037 29.6473 18.1195 29.6209C18.1248 29.6156 18.1301 29.6051 18.1354 29.5998C18.1617 29.5682 18.1828 29.5418 18.2092 29.5154L18.225 29.4996L18.2883 29.4363L18.3094 29.4152C18.3357 29.3889 18.3621 29.3678 18.3937 29.3414C18.4254 29.315 18.4518 29.2939 18.4834 29.2729C18.4939 29.2676 18.4992 29.2623 18.5098 29.257C18.5361 29.2412 18.5572 29.2201 18.5836 29.2043C18.5889 29.199 18.5994 29.1938 18.6047 29.1885C18.6363 29.1674 18.668 29.1516 18.7049 29.1305C18.7102 29.1252 18.7207 29.1252 18.726 29.1199C18.7523 29.1041 18.7787 29.0936 18.8104 29.0777L18.842 29.0619C18.8789 29.0461 18.9105 29.0303 18.9475 29.0197C18.9844 29.0039 19.0213 28.9934 19.0582 28.9828C19.0687 28.9775 19.0793 28.9775 19.0898 28.9723C19.1215 28.9617 19.1479 28.9564 19.1795 28.9512C19.19 28.9512 19.1953 28.9459 19.2059 28.9459C19.2428 28.9354 19.285 28.9301 19.3219 28.9248C19.3324 28.9248 19.3377 28.9248 19.3482 28.9195C19.3799 28.9143 19.4115 28.9143 19.4432 28.909H19.4748C19.517 28.909 19.5539 28.9037 19.5961 28.9037C19.6383 28.9037 19.6752 28.9037 19.7174 28.909H19.749C19.7807 28.909 19.8123 28.9143 19.8439 28.9195C19.8545 28.9195 19.8598 28.9195 19.8703 28.9248C19.9072 28.9301 19.9494 28.9354 19.9863 28.9459C19.9969 28.9459 20.0021 28.9512 20.0127 28.9512C20.0443 28.9564 20.076 28.967 20.1023 28.9723C20.1129 28.9775 20.1234 28.9775 20.134 28.9828C20.1709 28.9934 20.2078 29.0039 20.2447 29.0197C20.2816 29.0303 20.3133 29.0461 20.3502 29.0619L20.3818 29.0777C20.4082 29.0883 20.4398 29.1041 20.4662 29.1199C20.4715 29.1252 20.482 29.1252 20.4873 29.1305C20.5189 29.1463 20.5559 29.1674 20.5875 29.1885C20.5928 29.1938 20.6033 29.199 20.6086 29.2043C20.635 29.2201 20.6613 29.2359 20.6824 29.257C20.693 29.2623 20.6982 29.2676 20.7088 29.2729C20.7404 29.2939 20.7721 29.3203 20.7984 29.3414C20.8248 29.3625 20.8564 29.3889 20.8828 29.4152L20.9039 29.4363L20.9672 29.4996L20.983 29.5154C21.0094 29.5418 21.0357 29.5734 21.0568 29.5998C21.0621 29.6051 21.0674 29.6156 21.0727 29.6209C21.0938 29.642 21.1096 29.6684 21.1254 29.6947C21.1307 29.7053 21.1359 29.7105 21.1412 29.7211L21.2045 29.816C21.2045 29.816 21.2045 29.8213 21.2098 29.8213C21.3856 30.1163 21.4785 30.4534 21.4787 30.7969C21.4787 31.1133 21.3996 31.4139 21.2625 31.6775C21.2467 31.7092 21.2256 31.7408 21.2098 31.7725C21.2098 31.7725 21.2098 31.7777 21.2045 31.7777L21.1412 31.8727C21.1359 31.8832 21.1307 31.8885 21.1254 31.899C21.1096 31.9254 21.0885 31.9465 21.0727 31.9729C21.0674 31.9781 21.0621 31.9887 21.0568 31.9939C21.0305 32.0256 21.0094 32.052 20.983 32.0783L20.9672 32.0941L20.9039 32.1574L20.8828 32.1785C20.8564 32.2049 20.8301 32.226 20.7984 32.2523C20.7668 32.2787 20.7404 32.2998 20.7088 32.3209C20.6982 32.3262 20.693 32.3314 20.6824 32.3367C20.6561 32.3525 20.635 32.3736 20.6086 32.3895C20.6033 32.3947 20.5928 32.4 20.5875 32.4053C20.5559 32.4264 20.5242 32.4422 20.4873 32.4633C20.482 32.4686 20.4715 32.4686 20.4662 32.4738C20.4398 32.4896 20.4135 32.5002 20.3818 32.516L20.3502 32.5318C20.3133 32.5477 20.2816 32.5635 20.2447 32.574C20.2078 32.5898 20.1709 32.6004 20.134 32.6109C20.1234 32.6162 20.1129 32.6162 20.1023 32.6215C20.0707 32.632 20.0443 32.6373 20.0127 32.6426C20.0021 32.6426 19.9969 32.6479 19.9863 32.6479C19.9494 32.6584 19.9072 32.6637 19.8703 32.6689C19.8598 32.6689 19.8545 32.6689 19.8439 32.6742C19.8123 32.6795 19.7807 32.6795 19.749 32.6848H19.7174C19.6752 32.6848 19.6383 32.69 19.5961 32.69C19.5539 32.69 19.517 32.69 19.4748 32.6848H19.4432C19.4115 32.6848 19.3799 32.6795 19.3482 32.6742C19.3377 32.6742 19.3324 32.6742 19.3219 32.6689C19.285 32.6637 19.2428 32.6584 19.2059 32.6479C19.1953 32.6479 19.19 32.6426 19.1795 32.6426C19.1479 32.6373 19.1162 32.6268 19.0898 32.6215C19.0793 32.6162 19.0687 32.6162 19.0582 32.6109C19.0213 32.6004 18.9844 32.5898 18.9475 32.574C18.9105 32.5635 18.8789 32.5477 18.842 32.5318L18.8104 32.516C18.784 32.5055 18.7523 32.4896 18.726 32.4738C18.7207 32.4686 18.7102 32.4686 18.7049 32.4633C18.6732 32.4475 18.6363 32.4264 18.6047 32.4053C18.5994 32.4 18.5889 32.3947 18.5836 32.3895C18.5572 32.3736 18.5309 32.3578 18.5098 32.3367C18.4992 32.3314 18.4939 32.3262 18.4834 32.3209C18.4518 32.2998 18.4201 32.2734 18.3937 32.2523C18.3674 32.2312 18.3357 32.2049 18.3094 32.1785L18.2883 32.1574L18.225 32.0941L18.2092 32.0783C18.1828 32.052 18.1564 32.0203 18.1354 31.9939C18.1301 31.9887 18.1248 31.9781 18.1195 31.9729C18.0984 31.9518 18.0826 31.9254 18.0668 31.899C18.0615 31.8885 18.0562 31.8832 18.051 31.8727L17.9877 31.7777V31.7725C17.9666 31.7408 17.9508 31.7092 17.935 31.6775C17.7979 31.4139 17.7188 31.1133 17.7188 30.7969C17.7188 30.4805 17.7979 30.1799 17.935 29.9162ZM32.6953 28.4238V40.0781C32.6953 40.3102 32.8852 40.5 33.1172 40.5H35.6484C35.8805 40.5 36.0703 40.3102 36.0703 40.0781V28.4238C35.5377 28.5979 34.9734 28.6875 34.3828 28.6875C33.7922 28.6875 33.2279 28.5926 32.6953 28.4238ZM36.0703 17.9824V13.9219C36.0703 13.6898 35.8805 13.5 35.6484 13.5H33.1172C32.8852 13.5 32.6953 13.6898 32.6953 13.9219V17.9824C33.2279 17.8084 33.7922 17.7188 34.3828 17.7188C34.9734 17.7188 35.5377 17.8137 36.0703 17.9824ZM32.6953 28.4238C33.2279 28.5979 33.7922 28.6875 34.3828 28.6875C34.9734 28.6875 35.5377 28.5926 36.0703 28.4238C38.2746 27.7119 39.8672 25.6447 39.8672 23.2031C39.8672 20.7615 38.2746 18.6943 36.0703 17.9824C35.5377 17.8084 34.9734 17.7188 34.3828 17.7188C33.7922 17.7188 33.2279 17.8137 32.6953 17.9824C30.491 18.6943 28.8984 20.7615 28.8984 23.2031C28.8984 25.6447 30.491 27.7119 32.6953 28.4238ZM32.7006 22.3225C32.7164 22.2908 32.7375 22.2592 32.7533 22.2275V22.2223L32.8166 22.1273C32.8219 22.1168 32.8271 22.1115 32.8324 22.101C32.8482 22.0746 32.8693 22.0535 32.8852 22.0271C32.8904 22.0219 32.8957 22.0113 32.901 22.0061C32.9273 21.9744 32.9484 21.948 32.9748 21.9217L32.9906 21.9059L33.0539 21.8426L33.075 21.8215C33.1014 21.7951 33.1277 21.774 33.1594 21.7477C33.191 21.7213 33.2174 21.7002 33.249 21.6791C33.2596 21.6738 33.2648 21.6686 33.2754 21.6633C33.3018 21.6475 33.3229 21.6264 33.3492 21.6105C33.3545 21.6053 33.365 21.6 33.3703 21.5947C33.402 21.5736 33.4336 21.5578 33.4705 21.5367C33.4758 21.5314 33.4863 21.5314 33.4916 21.5262C33.518 21.5104 33.5443 21.4998 33.576 21.484L33.6076 21.4682C33.6445 21.4523 33.6762 21.4365 33.7131 21.426C33.75 21.4102 33.7869 21.3996 33.8238 21.3891C33.8344 21.3838 33.8449 21.3838 33.8555 21.3785C33.8871 21.368 33.9135 21.3627 33.9451 21.3574C33.9557 21.3574 33.9609 21.3521 33.9715 21.3521C34.0084 21.3416 34.0506 21.3363 34.0875 21.3311C34.098 21.3311 34.1033 21.3311 34.1139 21.3258C34.1455 21.3205 34.1771 21.3205 34.2088 21.3152H34.2404C34.2826 21.3152 34.3195 21.31 34.3617 21.31C34.4039 21.31 34.4408 21.31 34.483 21.3152H34.5146C34.5463 21.3152 34.5779 21.3205 34.6096 21.3258C34.6201 21.3258 34.6254 21.3258 34.6359 21.3311C34.6729 21.3363 34.715 21.3416 34.752 21.3521C34.7625 21.3521 34.7678 21.3574 34.7783 21.3574C34.81 21.3627 34.8416 21.3732 34.868 21.3785C34.8785 21.3838 34.8891 21.3838 34.8996 21.3891C34.9365 21.3996 34.9734 21.4102 35.0104 21.426C35.0473 21.4365 35.0789 21.4523 35.1158 21.4682L35.1475 21.484C35.1738 21.4945 35.2055 21.5104 35.2318 21.5262C35.2371 21.5314 35.2477 21.5314 35.2529 21.5367C35.2846 21.5525 35.3215 21.5736 35.3531 21.5947C35.3584 21.6 35.3689 21.6053 35.3742 21.6105C35.4006 21.6264 35.427 21.6422 35.448 21.6633C35.4586 21.6686 35.4639 21.6738 35.4744 21.6791C35.5061 21.7002 35.5377 21.7266 35.5641 21.7477C35.5904 21.7687 35.6221 21.7951 35.6484 21.8215L35.6695 21.8426L35.7328 21.9059L35.7486 21.9217C35.775 21.948 35.8014 21.9797 35.8225 22.0061C35.8277 22.0113 35.833 22.0219 35.8383 22.0271C35.8594 22.0482 35.8752 22.0746 35.891 22.101C35.8963 22.1115 35.9016 22.1168 35.9068 22.1273L35.9701 22.2223V22.2275C36.1459 22.5226 36.2389 22.8596 36.2391 23.2031C36.2391 23.5195 36.16 23.8201 36.0229 24.0838C36.007 24.1154 35.9859 24.1471 35.9701 24.1787V24.184L35.9068 24.2789C35.9016 24.2895 35.8963 24.2947 35.891 24.3053C35.8752 24.3316 35.8541 24.3527 35.8383 24.3791C35.833 24.3844 35.8277 24.3949 35.8225 24.4002C35.7961 24.4318 35.775 24.4582 35.7486 24.4846L35.7328 24.5004L35.6695 24.5637L35.6484 24.5848C35.6221 24.6111 35.5957 24.6322 35.5641 24.6586C35.5324 24.685 35.5061 24.7061 35.4744 24.7271C35.4639 24.7324 35.4586 24.7377 35.448 24.743C35.4217 24.7588 35.4006 24.7799 35.3742 24.7957C35.3689 24.801 35.3584 24.8062 35.3531 24.8115C35.3215 24.8326 35.2898 24.8484 35.2529 24.8695C35.2477 24.8748 35.2371 24.8748 35.2318 24.8801C35.2055 24.8959 35.1791 24.9064 35.1475 24.9223L35.1158 24.9381C35.0789 24.9539 35.0473 24.9697 35.0104 24.9803C34.9734 24.9961 34.9365 25.0066 34.8996 25.0172C34.8891 25.0225 34.8785 25.0225 34.868 25.0277C34.8363 25.0383 34.81 25.0436 34.7783 25.0488C34.7678 25.0488 34.7625 25.0541 34.752 25.0541C34.715 25.0646 34.6729 25.0699 34.6359 25.0752C34.6254 25.0752 34.6201 25.0752 34.6096 25.0805C34.5779 25.0857 34.5463 25.0857 34.5146 25.091H34.483C34.4408 25.091 34.4039 25.0963 34.3617 25.0963C34.3195 25.0963 34.2826 25.0963 34.2404 25.091H34.2088C34.1771 25.091 34.1455 25.0857 34.1139 25.0805C34.1033 25.0805 34.098 25.0805 34.0875 25.0752C34.0506 25.0699 34.0084 25.0646 33.9715 25.0541C33.9609 25.0541 33.9557 25.0488 33.9451 25.0488C33.9135 25.0436 33.8818 25.033 33.8555 25.0277C33.8449 25.0225 33.8344 25.0225 33.8238 25.0172C33.7869 25.0066 33.75 24.9961 33.7131 24.9803C33.6762 24.9697 33.6445 24.9539 33.6076 24.9381L33.576 24.9223C33.5496 24.9117 33.518 24.8959 33.4916 24.8801C33.4863 24.8748 33.4758 24.8748 33.4705 24.8695C33.4389 24.8537 33.402 24.8326 33.3703 24.8115C33.365 24.8062 33.3545 24.801 33.3492 24.7957C33.3229 24.7799 33.2965 24.7641 33.2754 24.743C33.2648 24.7377 33.2596 24.7324 33.249 24.7271C33.2174 24.7061 33.1857 24.6797 33.1594 24.6586C33.133 24.6375 33.1014 24.6111 33.075 24.5848L33.0539 24.5637L32.9906 24.5004L32.9748 24.4846C32.9484 24.4582 32.9221 24.4266 32.901 24.4002C32.8957 24.3949 32.8904 24.3844 32.8852 24.3791C32.8641 24.358 32.8482 24.3316 32.8324 24.3053C32.8271 24.2947 32.8219 24.2895 32.8166 24.2789L32.7533 24.184V24.1787C32.7322 24.1471 32.7164 24.1154 32.7006 24.0838C32.5635 23.8201 32.4844 23.5195 32.4844 23.2031C32.4844 22.8867 32.5635 22.5861 32.7006 22.3225Z" fill="white"/>
</svg>
