<svg width="38" height="38" viewBox="0 0 38 38" fill="none" xmlns="http://www.w3.org/2000/svg">
<path d="M17.8125 18.7308L4.75 13.2367V25.4758C4.75688 25.9862 4.90961 26.484 5.19015 26.9104C5.4707 27.3368 5.86736 27.6741 6.33333 27.8825L17.7175 33.25H17.8125V18.7308ZM19 16.625L32.4742 10.9725C32.2474 10.7206 31.9729 10.5161 31.6667 10.3708L20.2667 5.03499C19.8707 4.84758 19.4381 4.75037 19 4.75037C18.5619 4.75037 18.1293 4.84758 17.7333 5.03499L6.33333 10.3708C6.02706 10.5161 5.7526 10.7206 5.52583 10.9725L19 16.625ZM20.1875 18.7308V33.25H20.2667L31.6667 27.8825C32.1302 27.6753 32.5253 27.3404 32.8056 26.9171C33.086 26.4937 33.2401 25.9993 33.25 25.4917V13.2367L20.1875 18.7308Z" fill="#ffffff"/>
</svg>
