<svg width="57" height="57" viewBox="0 0 57 57" fill="none" xmlns="http://www.w3.org/2000/svg">
<path d="M26.3627 10.0947C22.9367 10.4832 19.6873 11.8207 16.9805 13.9565L19.3232 16.302C19.7008 16.7072 19.9063 17.2431 19.8965 17.7969C19.8868 18.3506 19.6624 18.879 19.2708 19.2706C18.8792 19.6623 18.3508 19.8866 17.7971 19.8963C17.2433 19.9061 16.7074 19.7006 16.3022 19.323L13.9481 16.9718C11.9473 19.4813 10.6456 22.4752 10.1747 25.65H14.9627C15.5296 25.65 16.0733 25.8752 16.4741 26.2761C16.875 26.6769 17.1002 27.2206 17.1002 27.7875C17.1002 28.3544 16.875 28.8981 16.4741 29.2989C16.0733 29.6998 15.5296 29.925 14.9627 29.925H10.0464C10.4902 34.499 12.5807 38.7559 15.9288 41.9036C16.3327 42.2936 16.5668 42.8269 16.5807 43.3882C16.5945 43.9495 16.387 44.4936 16.003 44.9032C15.6189 45.3127 15.0891 45.5547 14.5281 45.5768C13.9671 45.5989 13.4199 45.3995 13.0047 45.0215C8.61575 40.9089 5.7002 34.8441 5.7002 28.3376C5.7002 15.8204 15.9231 5.7 28.5002 5.7C41.0772 5.7 51.3002 15.8175 51.3002 28.3376C51.2946 31.4614 50.6534 34.5514 49.4158 37.4196C48.1782 40.2878 46.3699 42.8742 44.1011 45.0215C43.686 45.3995 43.1388 45.5989 42.5778 45.5768C42.0167 45.5547 41.487 45.3127 41.1029 44.9032C40.7188 44.4936 40.5113 43.9495 40.5252 43.3882C40.539 42.8269 40.7732 42.2936 41.177 41.9036C44.5019 38.7506 46.5578 34.4898 46.9568 29.925H42.0377C41.4708 29.925 40.9271 29.6998 40.5263 29.2989C40.1254 28.8981 39.9002 28.3544 39.9002 27.7875C39.9002 27.2206 40.1254 26.6769 40.5263 26.2761C40.9271 25.8752 41.4708 25.65 42.0377 25.65H46.8257C45.6173 17.4819 38.9796 11.0438 30.6377 10.0947V13.5375C30.6377 14.1044 30.4125 14.6481 30.0116 15.0489C29.6108 15.4498 29.0671 15.675 28.5002 15.675C27.9333 15.675 27.3896 15.4498 26.9888 15.0489C26.5879 14.6481 26.3627 14.1044 26.3627 13.5375V10.0947ZM38.3298 16.55C38.5888 16.3443 38.9113 16.2351 39.242 16.2411C39.5726 16.2471 39.8909 16.3679 40.1423 16.5829C40.3936 16.7978 40.5624 17.0935 40.6196 17.4193C40.6768 17.745 40.619 18.0805 40.4559 18.3683L40.1424 18.9269C38.9963 20.9506 37.843 22.9704 36.6825 24.986C35.7548 26.5989 34.8142 28.2044 33.861 29.8025C33.5038 30.4037 33.139 31.0003 32.7666 31.5923C32.4816 32.0397 32.2023 32.4644 31.9971 32.7038C31.2609 33.5662 30.2123 34.1009 29.0818 34.1901C27.9514 34.2794 26.8318 33.9159 25.9694 33.1797C25.107 32.4435 24.5723 31.3948 24.483 30.2644C24.3938 29.134 24.7572 28.0144 25.4934 27.152C25.6986 26.9126 26.072 26.5677 26.471 26.2172C26.8985 25.8381 27.4485 25.3736 28.067 24.852C29.3096 23.8146 30.8657 22.5435 32.3819 21.318C34.1904 19.8551 36.0049 18.3997 37.8254 16.9518L38.3298 16.55Z" fill="#9852F2"/>
</svg>
