<svg width="25" height="24" viewBox="0 0 25 24" fill="none" xmlns="http://www.w3.org/2000/svg">
<g clip-path="url(#clip0_106_3068)">
<path d="M17.997 16.906V16.899C17.9971 16.7378 17.9533 16.5795 17.87 16.4404C17.7867 16.3013 17.667 16.1866 17.5233 16.108L17.5182 16.106C15.353 14.8695 12.8793 14.2473 10.3738 14.309H10.3891C8.79874 14.3229 7.21492 14.5104 5.66697 14.868L5.81192 14.84C5.61395 14.8641 5.43333 14.9628 5.30834 15.1151C5.18334 15.2674 5.12379 15.4614 5.14229 15.656V15.653V15.665C5.14229 15.87 5.22497 16.056 5.35869 16.193C5.49344 16.333 5.6833 16.42 5.8946 16.42L5.92625 16.419C6.15592 16.385 6.35395 16.342 6.54892 16.286L6.51626 16.294C7.78627 16.0237 9.08133 15.8823 10.3809 15.872H10.3911C12.6352 15.8213 14.8486 16.3892 16.7792 17.511L16.7241 17.481C16.8731 17.578 17.0538 17.64 17.2477 17.653H17.2518C17.4505 17.653 17.6411 17.5757 17.7816 17.438C17.9221 17.3004 18.001 17.1137 18.001 16.919V16.902L17.997 16.906ZM19.5281 13.546V13.514C19.5281 13.119 19.3046 12.774 18.9749 12.596L18.9698 12.593C16.5628 11.206 13.6668 10.386 10.5759 10.386C10.4554 10.386 10.334 10.387 10.2145 10.39H10.2329C8.55517 10.3892 6.8857 10.6205 5.27397 11.077L5.39953 11.046C5.1683 11.0919 4.96245 11.2196 4.82139 11.4049C4.68032 11.5901 4.61394 11.8198 4.63496 12.05C4.63496 12.566 5.06165 12.984 5.58837 12.984H5.59245C5.81498 12.956 6.01506 12.912 6.20798 12.853L6.18348 12.86C7.47866 12.5133 8.81574 12.3397 10.1584 12.344H10.186H10.1849C12.9393 12.2782 15.6583 12.9619 18.0398 14.319L17.9684 14.281C18.1409 14.389 18.3471 14.462 18.5686 14.484H18.5788C18.8317 14.484 19.0742 14.3856 19.253 14.2105C19.4318 14.0353 19.5322 13.7977 19.5322 13.55V13.546H19.5281ZM21.2532 9.67202L21.2543 9.62002C21.2543 9.17102 20.9981 8.78102 20.6214 8.58102L20.6153 8.57802C19.1909 7.78533 17.6516 7.20973 16.0503 6.87102L15.9421 6.85202C14.313 6.48002 12.4419 6.26602 10.5198 6.26602H10.4687H10.4718C8.46041 6.23683 6.45549 6.49591 4.52063 7.03502L4.66559 7.00002C4.42585 7.07065 4.21276 7.20911 4.05312 7.39802L4.05108 7.40002C3.87808 7.61628 3.79104 7.88667 3.80609 8.16102V8.15802V8.18702C3.80609 8.49202 3.93062 8.76902 4.13376 8.97102C4.33383 9.17402 4.61455 9.29902 4.92486 9.29902H4.95753H4.95549C5.19027 9.27902 5.40769 9.23502 5.61389 9.16802L5.59347 9.17402C7.19622 8.75919 8.85007 8.56466 10.5075 8.59602H10.4932H10.5381C12.2724 8.59602 13.9598 8.79002 15.5798 9.15602L15.4297 9.12702C16.8737 9.41711 18.2615 9.92982 19.5414 10.646L19.473 10.611C19.6547 10.722 19.8742 10.791 20.109 10.798H20.1212C20.4315 10.798 20.7122 10.676 20.9154 10.478C21.1246 10.284 21.2553 10.009 21.2553 9.70502L21.2543 9.67002V9.67202H21.2532ZM24.5197 12V12.09C24.5197 14.277 23.9093 16.324 22.8457 18.077L22.8763 18.023C21.8147 19.8155 20.299 21.3093 18.4757 22.36L18.4185 22.39C16.6536 23.402 14.5335 23.999 12.2694 23.999C10.0053 23.999 7.88512 23.402 6.06201 22.359L6.1202 22.39C4.29051 21.35 2.76566 19.8652 1.69308 18.079L1.66245 18.023C0.629425 16.294 0.0200195 14.217 0.0200195 11.999C0.0200195 9.78102 0.629425 7.70402 1.6941 5.91802L1.66245 5.97502C2.72405 4.18258 4.23976 2.68877 6.06303 1.63802L6.1202 1.60802C7.88512 0.596024 10.0053 -0.000976562 12.2694 -0.000976562C14.5335 -0.000976562 16.6536 0.596024 18.4767 1.63902L18.4185 1.60802C20.2482 2.64801 21.7731 4.13287 22.8457 5.91902L22.8763 5.97502C23.9585 7.77202 24.5263 9.82159 24.5197 11.908V12.004V11.999V12Z" fill="#9852F2"/>
</g>
<defs>
<clipPath id="clip0_106_3068">
<rect width="24.4987" height="24" fill="white" transform="translate(0.0209961)"/>
</clipPath>
</defs>
</svg>
