<svg width="67" height="67" viewBox="0 0 67 67" fill="none" xmlns="http://www.w3.org/2000/svg">
<g clip-path="url(#clip0_106_3557)">
<circle cx="33.5" cy="33.5002" r="33.5" fill="#202020"/>
<path d="M39.6396 42.244H43.6229V25.7565H39.6396V42.244ZM32.6458 37.544C32.6426 37.8257 32.5291 38.0949 32.3297 38.2939C32.1303 38.4929 31.8609 38.6058 31.5792 38.6086H29.2646C28.9829 38.6058 28.7135 38.4929 28.5141 38.2939C28.3147 38.0949 28.2012 37.8257 28.1979 37.544V30.8981H24.2146V37.8669C24.2146 40.7169 26.0458 42.2211 28.7312 42.2211H32.6229C35.1 42.2211 36.6062 40.4377 36.6062 37.8669V30.8961H32.6229C32.6437 30.8961 32.6437 37.3336 32.6437 37.5419L32.6458 37.544ZM55.0417 30.8981V37.544C55.0384 37.8257 54.9249 38.0949 54.7255 38.2939C54.5261 38.4929 54.2567 38.6058 53.975 38.6086H51.6583C51.377 38.6053 51.1081 38.4921 50.9091 38.2932C50.7102 38.0942 50.597 37.8253 50.5938 37.544V30.8981H46.6104V37.8669C46.6104 40.7169 48.4396 42.2211 51.125 42.2211H55.0167C57.4958 42.2211 59 40.4377 59 37.8669V30.8961L55.0417 30.8981ZM16.875 30.8981H14.3271C13.4229 30.8981 12.9833 31.1273 12.9833 31.1273V25.7586H9V42.2231H12.9583V35.6002C12.9583 35.0211 13.4458 34.5356 14.025 34.5356H16.3417C16.9208 34.5356 17.4062 35.0211 17.4062 35.6002V42.2461H21.3896V35.0669C21.3896 32.0565 19.375 30.9002 16.875 30.9002V30.8981Z" fill="#1CE783"/>
</g>
<defs>
<clipPath id="clip0_106_3557">
<rect width="67" height="67" fill="white" transform="translate(0 0.000244141)"/>
</clipPath>
</defs>
</svg>
