<svg width="44" height="44" viewBox="0 0 44 44" fill="none" xmlns="http://www.w3.org/2000/svg">
<path d="M22 42C33.0457 42 42 33.0457 42 22C42 10.9543 33.0457 2 22 2C10.9543 2 2 10.9543 2 22C2 33.0457 10.9543 42 22 42Z" stroke="#9852F2" stroke-width="4" stroke-linecap="round" stroke-linejoin="round"/>
<path d="M36 36L33 33M8 8L11 11" stroke="#9852F2" stroke-width="4" stroke-linecap="round" stroke-linejoin="round"/>
<path d="M12 29L12.857 26M12.857 26L16 15L19.143 26M12.857 26H19.143M20 29L19.143 26M33 22C33 27 29.418 29 25 29V15C29.418 15 33 17 33 22Z" stroke="#9852F2" stroke-width="4" stroke-linecap="round" stroke-linejoin="round"/>
</svg>
