<svg width="48" height="48" viewBox="0 0 48 48" fill="none" xmlns="http://www.w3.org/2000/svg">
<path fill-rule="evenodd" clip-rule="evenodd" d="M24 6C22 6 20.118 6.488 18.462 7.351C18.2277 7.46545 17.958 7.48389 17.7104 7.40238C17.4627 7.32087 17.2567 7.14587 17.1362 6.91466C17.0157 6.68345 16.9903 6.41433 17.0653 6.16464C17.1404 5.91496 17.31 5.70446 17.538 5.578C19.5332 4.53841 21.7502 3.997 24 4C27.086 4 29.942 5 32.257 6.693C32.3641 6.7701 32.4549 6.86765 32.5241 6.98001C32.5934 7.09237 32.6397 7.21732 32.6604 7.34766C32.6811 7.478 32.6758 7.61116 32.6448 7.73944C32.6138 7.86773 32.5578 7.98861 32.4798 8.09512C32.4019 8.20163 32.3036 8.29166 32.1907 8.36002C32.0778 8.42837 31.9525 8.47371 31.822 8.4934C31.6915 8.5131 31.5584 8.50677 31.4304 8.47478C31.3023 8.44279 31.1819 8.38576 31.076 8.307C29.0233 6.80381 26.5442 5.99554 24 6ZM33.632 9.212C33.7355 9.13108 33.8539 9.07134 33.9804 9.03619C34.107 9.00104 34.2393 8.99117 34.3696 9.00714C34.5 9.02311 34.626 9.06462 34.7403 9.12928C34.8546 9.19394 34.9551 9.2805 35.036 9.384C36.143 10.7992 36.9664 12.4147 37.461 14.142C37.5252 14.3941 37.4887 14.6613 37.3591 14.8869C37.2296 15.1125 37.0172 15.2787 36.7671 15.3503C36.517 15.4219 36.2488 15.3932 36.0195 15.2703C35.7902 15.1473 35.6179 14.9399 35.539 14.692C35.1145 13.2121 34.4082 11.8281 33.459 10.616C33.3781 10.5125 33.3185 10.394 33.2834 10.2674C33.2483 10.1408 33.2385 10.0085 33.2546 9.87816C33.2707 9.74777 33.3123 9.62183 33.377 9.50753C33.4418 9.39323 33.5284 9.29281 33.632 9.212ZM13.958 9.684C14.0652 9.75983 14.1565 9.85604 14.2265 9.96714C14.2966 10.0782 14.344 10.202 14.3662 10.3315C14.3884 10.4609 14.3849 10.5935 14.3559 10.7216C14.3268 10.8497 14.2728 10.9708 14.197 11.078C12.7637 13.1012 11.9959 15.5205 12 18V30C12 30.2652 11.8946 30.5196 11.7071 30.7071C11.5196 30.8946 11.2652 31 11 31C10.7348 31 10.4804 30.8946 10.2929 30.7071C10.1054 30.5196 10 30.2652 10 30V18C10 14.993 10.95 12.205 12.564 9.922C12.7173 9.70559 12.9503 9.55894 13.2117 9.51431C13.4731 9.46967 13.7416 9.53071 13.958 9.684ZM37 17C37.2652 17 37.5196 17.1054 37.7071 17.2929C37.8946 17.4804 38 17.7348 38 18V30C38.0045 33.2688 36.861 36.4353 34.769 38.947C34.5993 39.151 34.3555 39.2791 34.0912 39.3033C33.827 39.3275 33.564 39.2457 33.36 39.076C33.156 38.9063 33.0279 38.6625 33.0037 38.3982C32.9795 38.134 33.0613 37.871 33.231 37.667C35.0241 35.5149 36.0041 32.8012 36 30V18.001C36 17.7358 36.1054 17.4814 36.2929 17.2939C36.4804 17.1064 36.7348 17 37 17ZM12.902 36.847C13.0081 36.7695 13.1285 36.7137 13.2563 36.6828C13.384 36.6518 13.5166 36.6464 13.6464 36.6667C13.7762 36.6871 13.9008 36.7328 14.0129 36.8013C14.1251 36.8698 14.2226 36.9598 14.3 37.066C15.7474 39.0514 17.7679 40.546 20.09 41.349C21.3481 41.7816 22.6696 42.0016 24 42C24.2652 42 24.5196 42.1054 24.7071 42.2929C24.8946 42.4804 25 42.7348 25 43C25 43.2652 24.8946 43.5196 24.7071 43.7071C24.5196 43.8946 24.2652 44 24 44C22.4477 44.0015 20.906 43.7447 19.438 43.24C16.7294 42.3038 14.3724 40.5606 12.684 38.245C12.6065 38.1389 12.5506 38.0186 12.5196 37.8909C12.4886 37.7632 12.483 37.6307 12.5033 37.5008C12.5235 37.371 12.5691 37.2464 12.6376 37.1342C12.706 37.022 12.7958 36.9244 12.902 36.847ZM31.777 40.467C31.9184 40.6913 31.965 40.9625 31.9065 41.2211C31.848 41.4797 31.6892 41.7045 31.465 41.846C30.1616 42.6697 28.7305 43.2712 27.23 43.626C27.1022 43.6562 26.9696 43.6609 26.84 43.6399C26.7103 43.6189 26.586 43.5725 26.4743 43.5035C26.3625 43.4345 26.2654 43.3441 26.1886 43.2375C26.1118 43.131 26.0567 43.0103 26.0265 42.8825C25.9963 42.7547 25.9916 42.6221 26.0126 42.4925C26.0336 42.3628 26.08 42.2385 26.149 42.1268C26.218 42.015 26.3084 41.9179 26.415 41.8411C26.5215 41.7643 26.6422 41.7092 26.77 41.679C28.0554 41.3751 29.2814 40.8597 30.398 40.154C30.6223 40.0126 30.8935 39.966 31.1521 40.0245C31.4107 40.083 31.6355 40.2428 31.777 40.467ZM14 18.235C14 12.765 19.014 9 24 9C28.986 9 34 12.765 34 18.235V28.544C34 29.422 33.83 30.357 33.35 31.106C32.836 31.908 31.999 32.433 30.89 32.433C29.807 32.433 28.926 31.933 28.342 31.178C27.773 30.444 27.5 29.495 27.5 28.544V19.237C27.5027 18.279 27.1318 17.3578 26.466 16.669C26.146 16.3381 25.7629 16.0748 25.3393 15.8947C24.9157 15.7145 24.4603 15.6211 24 15.62C23.08 15.62 22.193 15.994 21.534 16.67C20.8682 17.3588 20.4973 18.28 20.5 19.238V30.854C20.5 33.524 21.836 35.994 24.828 37.059C25.0756 37.1496 25.2775 37.3344 25.3895 37.5731C25.5016 37.8119 25.5148 38.0852 25.4263 38.3336C25.3379 38.582 25.1548 38.7854 24.9171 38.8996C24.6794 39.0137 24.4062 39.0293 24.157 38.943C20.257 37.555 18.5 34.247 18.5 30.853V19.238C18.4973 17.7585 19.0721 16.3363 20.102 15.274C20.6082 14.7518 21.214 14.3364 21.8835 14.0523C22.553 13.7682 23.2727 13.6212 24 13.62C25.467 13.62 26.869 14.218 27.898 15.274C28.9279 16.3363 29.5027 17.7585 29.5 19.238V28.545C29.5 29.133 29.672 29.629 29.923 29.955C30.159 30.26 30.473 30.434 30.891 30.434C31.283 30.434 31.501 30.284 31.666 30.027C31.866 29.717 32 29.207 32 28.545V18.235C32 14.124 28.153 11 24 11C19.847 11 16 14.123 16 18.235V30.784C16 31.847 16.159 32.907 16.465 33.794C16.777 34.695 17.208 35.329 17.688 35.669C17.7951 35.745 17.8862 35.8414 17.956 35.9527C18.0258 36.0639 18.0731 36.1878 18.0951 36.3173C18.117 36.4468 18.1133 36.5793 18.084 36.7073C18.0547 36.8354 18.0005 36.9564 17.9245 37.0635C17.8485 37.1706 17.7521 37.2617 17.6409 37.3315C17.5296 37.4013 17.4057 37.4486 17.2762 37.4706C17.1467 37.4925 17.0142 37.4888 16.8862 37.4595C16.7581 37.4302 16.6371 37.376 16.53 37.3C15.584 36.63 14.961 35.568 14.574 34.448C14.183 33.315 13.999 32.029 13.999 30.783V18.236L14 18.235Z" fill="#ffffff"/>
<path fill-rule="evenodd" clip-rule="evenodd" d="M24 18C24.2652 18 24.5196 18.1054 24.7071 18.2929C24.8946 18.4804 25 18.7348 25 19V28.787C25 31.045 25.548 32.553 26.468 33.5C27.382 34.442 28.828 35 31 35C31.2652 35 31.5196 35.1054 31.7071 35.2929C31.8946 35.4804 32 35.7348 32 36C32 36.2652 31.8946 36.5196 31.7071 36.7071C31.5196 36.8946 31.2652 37 31 37C28.505 37 26.451 36.355 25.032 34.893C23.62 33.437 23 31.338 23 28.787V19C23 18.7348 23.1054 18.4804 23.2929 18.2929C23.4804 18.1054 23.7348 18 24 18Z" fill="#ffffff"/>
</svg>
