<svg width="48" height="48" viewBox="0 0 48 48" fill="none" xmlns="http://www.w3.org/2000/svg">
<path d="M24 44C35.0457 44 44 35.0457 44 24C44 12.9543 35.0457 4 24 4C12.9543 4 4 12.9543 4 24C4 35.0457 12.9543 44 24 44Z" stroke="#9852F2" stroke-width="4" stroke-linecap="round" stroke-linejoin="round"/>
<path d="M38 38L35 35M10 10L13 13" stroke="#9852F2" stroke-width="4" stroke-linecap="round" stroke-linejoin="round"/>
<path d="M14 31L14.857 28M14.857 28L18 17L21.143 28M14.857 28H21.143M22 31L21.143 28M35 24C35 29 31.418 31 27 31V17C31.418 17 35 19 35 24Z" stroke="#9852F2" stroke-width="4" stroke-linecap="round" stroke-linejoin="round"/>
</svg>
