<svg width="51" height="51" viewBox="0 0 51 51" fill="none" xmlns="http://www.w3.org/2000/svg">
<path d="M17 4.25H34C37.3815 4.25 40.6245 5.5933 43.0156 7.98439C45.4067 10.3755 46.75 13.6185 46.75 17V34C46.75 37.3815 45.4067 40.6245 43.0156 43.0156C40.6245 45.4067 37.3815 46.75 34 46.75H17C13.6185 46.75 10.3755 45.4067 7.98439 43.0156C5.5933 40.6245 4.25 37.3815 4.25 34L4.25 17C4.25 13.6185 5.5933 10.3755 7.98439 7.98439C10.3755 5.5933 13.6185 4.25 17 4.25ZM17 8.5C14.7457 8.5 12.5837 9.39553 10.9896 10.9896C9.39553 12.5837 8.5 14.7457 8.5 17V34C8.5 36.2543 9.39553 38.4163 10.9896 40.0104C12.5837 41.6045 14.7457 42.5 17 42.5H34C36.2543 42.5 38.4163 41.6045 40.0104 40.0104C41.6045 38.4163 42.5 36.2543 42.5 34V17C42.5 14.7457 41.6045 12.5837 40.0104 10.9896C38.4163 9.39553 36.2543 8.5 34 8.5H17ZM29.75 23.375H36.125C36.6886 23.375 37.2291 23.5989 37.6276 23.9974C38.0261 24.3959 38.25 24.9364 38.25 25.5C38.25 26.0636 38.0261 26.6041 37.6276 27.0026C37.2291 27.4011 36.6886 27.625 36.125 27.625H29.75C29.1864 27.625 28.6459 27.4011 28.2474 27.0026C27.8489 26.6041 27.625 26.0636 27.625 25.5C27.625 24.9364 27.8489 24.3959 28.2474 23.9974C28.6459 23.5989 29.1864 23.375 29.75 23.375ZM25.5 31.875H36.125C36.6886 31.875 37.2291 32.0989 37.6276 32.4974C38.0261 32.8959 38.25 33.4364 38.25 34C38.25 34.5636 38.0261 35.1041 37.6276 35.5026C37.2291 35.9011 36.6886 36.125 36.125 36.125H25.5C24.9364 36.125 24.3959 35.9011 23.9974 35.5026C23.5989 35.1041 23.375 34.5636 23.375 34C23.375 33.4364 23.5989 32.8959 23.9974 32.4974C24.3959 32.0989 24.9364 31.875 25.5 31.875ZM25.5 14.875H36.125C36.6886 14.875 37.2291 15.0989 37.6276 15.4974C38.0261 15.8959 38.25 16.4364 38.25 17C38.25 17.5636 38.0261 18.1041 37.6276 18.5026C37.2291 18.9011 36.6886 19.125 36.125 19.125H25.5C24.9364 19.125 24.3959 18.9011 23.9974 18.5026C23.5989 18.1041 23.375 17.5636 23.375 17C23.375 16.4364 23.5989 15.8959 23.9974 15.4974C24.3959 15.0989 24.9364 14.875 25.5 14.875ZM16.6345 26.0164L21.1437 21.505C21.3412 21.3077 21.5755 21.1512 21.8335 21.0445C22.0914 20.9378 22.3678 20.8829 22.6469 20.883C22.926 20.8831 23.2024 20.9382 23.4602 21.0451C23.718 21.152 23.9523 21.3086 24.1496 21.5061C24.3469 21.7035 24.5033 21.9379 24.6101 22.1958C24.7168 22.4537 24.7717 22.7301 24.7716 23.0092C24.7715 23.2883 24.7164 23.5647 24.6095 23.8225C24.5026 24.0803 24.3459 24.3146 24.1485 24.5119L18.139 30.5214C17.9416 30.719 17.7073 30.8757 17.4493 30.9826C17.1913 31.0896 16.9148 31.1446 16.6356 31.1446C16.3563 31.1446 16.0798 31.0896 15.8218 30.9826C15.5638 30.8757 15.3295 30.719 15.1321 30.5214L12.1274 27.5187C11.7403 27.118 11.5261 26.5812 11.5309 26.024C11.5358 25.4669 11.7593 24.9339 12.1533 24.5399C12.5473 24.1459 13.0802 23.9224 13.6374 23.9176C14.1946 23.9127 14.7313 24.1269 15.1321 24.514L16.6345 26.0164Z" fill="white"/>
</svg>
