<svg width="57" height="57" viewBox="0 0 57 57" fill="none" xmlns="http://www.w3.org/2000/svg">
<path d="M9.5 52.25C8.19375 52.25 7.07513 51.7845 6.14413 50.8535C5.21313 49.9225 4.74842 48.8047 4.75 47.5V19C4.75 17.6937 5.2155 16.5751 6.1465 15.6441C7.0775 14.7131 8.19534 14.2484 9.5 14.25H19L26.8375 6.4125C27.3125 5.9375 27.8667 5.7 28.5 5.7C29.1333 5.7 29.6875 5.9375 30.1625 6.4125L38 14.25H47.5C48.8063 14.25 49.9249 14.7155 50.8559 15.6465C51.7869 16.5775 52.2516 17.6953 52.25 19V47.5C52.25 48.8062 51.7845 49.9249 50.8535 50.8559C49.9225 51.7869 48.8047 52.2516 47.5 52.25H9.5ZM26.7188 40.375L22.325 34.4969C22.0875 34.1802 21.7708 34.0219 21.375 34.0219C20.9792 34.0219 20.6625 34.1802 20.425 34.4969L15.675 40.85C15.3583 41.2458 15.3188 41.6615 15.5563 42.0969C15.7938 42.5323 16.15 42.75 16.625 42.75H40.375C40.85 42.75 41.2063 42.5323 41.4438 42.0969C41.6813 41.6615 41.6417 41.2458 41.325 40.85L34.7938 32.1219C34.5563 31.8052 34.2396 31.6469 33.8438 31.6469C33.4479 31.6469 33.1313 31.8052 32.8938 32.1219L26.7188 40.375ZM41.5625 30.875C42.5521 30.875 43.3936 30.5282 44.0871 29.8347C44.7806 29.1412 45.1266 28.3005 45.125 27.3125C45.125 26.3229 44.7783 25.4814 44.0848 24.7879C43.3913 24.0944 42.5505 23.7484 41.5625 23.75C40.5729 23.75 39.7314 24.0967 39.0379 24.7902C38.3444 25.4837 37.9984 26.3245 38 27.3125C38 28.3021 38.3468 29.1436 39.0403 29.8371C39.7338 30.5306 40.5745 30.8766 41.5625 30.875ZM23.9875 14.25H33.0125L28.5 9.7375L23.9875 14.25Z" fill="#9852F2"/>
</svg>
