<svg width="48" height="48" viewBox="0 0 48 48" fill="none" xmlns="http://www.w3.org/2000/svg">
<path d="M31.5 38.26C29.84 38.26 28.5 36.58 28.5 34.5C28.5 32.44 29.84 30.76 31.5 30.76C33.16 30.76 34.5 32.44 34.5 34.5C34.5 36.58 33.16 38.26 31.5 38.26ZM24 22.5C21.52 22.5 19.5 20.82 19.5 18.76C19.5 16.68 21.52 15 24 15C26.48 15 28.5 16.68 28.5 18.76C28.5 20.82 26.48 22.5 24 22.5ZM16.5 38.26C14.84 38.26 13.5 36.58 13.5 34.5C13.5 32.44 14.84 30.76 16.5 30.76C18.16 30.76 19.5 32.44 19.5 34.5C19.5 36.58 18.16 38.26 16.5 38.26ZM24 16.5C24.82 16.5 25.5 17.18 25.5 18C25.5 18.82 24.82 19.5 24 19.5C23.18 19.5 22.5 18.82 22.5 18C22.5 17.18 23.18 16.5 24 16.5ZM37.5 24C36.86 24 36.24 24.14 35.68 24.4C34.72 23.18 33.42 22.14 31.86 21.34C33 19.74 33.68 17.8 33.68 15.7V15.58C35.86 15.12 37.5 13.18 37.5 10.84C37.5 8.18 35.32 6 32.66 6C31.28 6 30 6.58 29.16 7.5C27.6173 6.52037 25.8275 6.00015 24 6.00015C22.1725 6.00015 20.3828 6.52037 18.84 7.5C18 6.58 16.72 6 15.34 6C12.68 6 10.5 8.18 10.5 10.84C10.5 13.16 12.14 15.1 14.3 15.58V15.7C14.3 17.8 15 19.76 16.12 21.34C14.58 22.14 13.28 23.18 12.32 24.4C11.6366 24.0921 10.8868 23.9607 10.1393 24.0177C9.39186 24.0747 8.67067 24.3183 8.0418 24.7263C7.41292 25.1343 6.89647 25.6935 6.53976 26.3528C6.18304 27.0121 5.99746 27.7504 6.00003 28.5C6.00003 31 8.00003 33 10.5 33H10.62C10.54 33.48 10.5 34 10.5 34.5C10.5 38.64 13.18 42 16.5 42C18.52 42 20.3 40.74 21.4 38.82C22.24 38.94 23.1 39 24 39C24.9 39 25.76 38.94 26.6 38.82C27.7 40.74 29.48 42 31.5 42C34.82 42 37.5 38.64 37.5 34.5C37.5 34 37.46 33.48 37.38 33H37.5C40 33 42 31 42 28.5C42 26 40 24 37.5 24Z" fill="#9852F2"/>
</svg>
