<svg width="25" height="24" viewBox="0 0 25 24" fill="none" xmlns="http://www.w3.org/2000/svg">
<g clip-path="url(#clip0_106_3070)">
<path d="M7.93656 4.79771e-08C7.69525 -5.45307e-05 7.45629 0.0464579 7.23333 0.136881C7.01036 0.227304 6.80777 0.359867 6.63711 0.527L0.538971 6.503C0.194293 6.84024 0.000428855 7.29777 0 7.775L0 16.225C0 16.703 0.193948 17.161 0.538971 17.499L6.63711 23.473C6.80777 23.6401 7.01036 23.7727 7.23333 23.8631C7.45629 23.9535 7.69525 24.0001 7.93656 24H16.5621C16.8035 24.0001 17.0424 23.9535 17.2654 23.8631C17.4883 23.7727 17.6909 23.6401 17.8616 23.473L23.9608 17.499C24.1315 17.3317 24.2669 17.1331 24.3592 16.9145C24.4515 16.6959 24.4989 16.4616 24.4987 16.225V7.775C24.4985 7.29791 24.3051 6.8404 23.9608 6.503L17.8616 0.527C17.6909 0.359867 17.4883 0.227304 17.2654 0.136881C17.0424 0.0464579 16.8035 -5.45307e-05 16.5621 4.79771e-08H7.93656ZM12.4555 3C13.4967 3 13.4335 4.108 13.4335 4.108V10.892C13.4335 10.892 13.4243 11.11 13.5968 11.11C13.7887 11.11 13.7754 10.884 13.7754 10.884L13.7734 5.254C13.7734 5.254 13.7223 4.268 14.7523 4.268C15.7833 4.268 15.7425 5.251 15.7425 5.251V12.872C15.7425 12.872 15.7567 13.03 15.8864 13.03C16.016 13.03 16.85 10.908 16.85 10.908C16.85 10.908 17.3104 9.411 19.4795 9.808C19.5183 9.816 19.3091 10.496 19.3091 10.496L16.9786 17.052C16.9786 17.052 16.016 20.7 11.9574 20.7C6.8086 20.7 7.0495 15.293 7.04338 15.295V7.562C7.04338 7.562 7.02704 6.572 7.95902 6.572C8.83484 6.572 8.82566 7.562 8.82566 7.562L8.8328 11.145C8.8328 11.145 8.82872 11.317 9.00327 11.317C9.1666 11.317 9.1472 11.145 9.1472 11.145L9.15741 5.219C9.15741 5.219 9.10127 4.057 10.1435 4.057C11.2051 4.057 11.1469 5.199 11.1469 5.199V10.81C11.1469 10.81 11.1418 11.014 11.3021 11.014C11.4736 11.014 11.4593 10.808 11.4593 10.808L11.4695 4.115C11.4695 4.115 11.4123 3 12.4555 3Z" fill="#9852F2"/>
</g>
<defs>
<clipPath id="clip0_106_3070">
<rect width="24.4987" height="24" fill="white"/>
</clipPath>
</defs>
</svg>
