<svg width="25" height="24" viewBox="0 0 25 24" fill="none" xmlns="http://www.w3.org/2000/svg">
<g clip-path="url(#clip0_106_3066)">
<path d="M15.0336 15.957H16.9853V8.04297H15.0336V15.957ZM11.6068 13.701C11.6052 13.8362 11.5496 13.9654 11.4519 14.0609C11.3542 14.1564 11.2222 14.2107 11.0842 14.212H9.95012C9.81209 14.2107 9.68008 14.1564 9.58238 14.0609C9.48468 13.9654 9.42907 13.8362 9.42748 13.701V10.511H7.47575V13.856C7.47575 15.224 8.37301 15.946 9.6888 15.946H11.5956C12.8093 15.946 13.5473 15.09 13.5473 13.856V10.51H11.5956C11.6058 10.51 11.6058 13.6 11.6058 13.7L11.6068 13.701ZM22.5802 10.511V13.701C22.5786 13.8362 22.523 13.9654 22.4253 14.0609C22.3276 14.1564 22.1956 14.2107 22.0576 14.212H20.9225C20.7846 14.2104 20.6529 14.1561 20.5554 14.0606C20.4579 13.9651 20.4024 13.836 20.4009 13.701V10.511H18.4491V13.856C18.4491 15.224 19.3454 15.946 20.6612 15.946H22.568C23.7827 15.946 24.5197 15.09 24.5197 13.856V10.51L22.5802 10.511ZM3.87954 10.511H2.63113C2.18811 10.511 1.97273 10.621 1.97273 10.621V8.04397H0.0209961V15.947H1.96048V12.768C1.96048 12.49 2.19934 12.257 2.48312 12.257H3.61822C3.902 12.257 4.13984 12.49 4.13984 12.768V15.958H6.09157V12.512C6.09157 11.067 5.10448 10.512 3.87954 10.512V10.511Z" fill="#9852F2"/>
</g>
<defs>
<clipPath id="clip0_106_3066">
<rect width="24.4987" height="24" fill="white" transform="translate(0.0209961)"/>
</clipPath>
</defs>
</svg>
