<svg width="43" height="43" viewBox="0 0 43 43" fill="none" xmlns="http://www.w3.org/2000/svg">
<g clip-path="url(#clip0_106_3166)">
<path d="M21.5 0C9.62461 0 0 9.62461 0 21.5C0 33.3754 9.62461 43 21.5 43C33.3754 43 43 33.3754 43 21.5C43 9.62461 33.3754 0 21.5 0ZM21.5 39.4139C11.6066 39.4139 3.58613 31.3934 3.58613 21.5C3.58613 11.6066 11.6066 3.58613 21.5 3.58613C31.3934 3.58613 39.4139 11.6066 39.4139 21.5C39.4139 31.3934 31.3934 39.4139 21.5 39.4139ZM23.2889 7.16387H19.7027V23.2889H32.25V19.7027H23.2889V7.16387Z" fill="white"/>
</g>
<defs>
<clipPath id="clip0_106_3166">
<rect width="43" height="43" fill="white"/>
</clipPath>
</defs>
</svg>
