<svg width="250" height="100" viewBox="0 0 250 100" fill="none" xmlns="http://www.w3.org/2000/svg">
<path fill-rule="evenodd" clip-rule="evenodd" d="M36.0258 4.00013H36.7412C36.7503 3.99996 36.7594 3.99996 36.7685 4.00013H50.6199L85.6457 66.2328L79.808 77.811H7.56734L1 66.2328L36.0258 4.00013ZM63.9633 53.931L36.6079 5.93544L31.8731 14.3481L38.3933 26.0287L38.4621 26.0676L38.4382 26.1091L53.9688 53.931H63.9633ZM65.8428 54.2873C65.9069 54.395 65.9437 54.5206 65.9437 54.6547C65.9437 55.0543 65.617 55.3783 65.214 55.3783H33.8783L28.1202 65.5092H83.5671L49.7631 5.4474H38.0061L65.8428 54.2873ZM34.7008 53.931H52.3007L43.5801 38.3086L34.7008 53.931ZM21.9509 76.3637L27.2977 66.9565H83.6491L78.9061 76.3637H21.9509ZM42.7557 36.8319C42.7305 36.8628 42.7075 36.8963 42.6871 36.9321L20.2757 76.3637H9.55289L37.592 27.5814L42.7557 36.8319ZM36.7643 26.0987L8.14877 75.884L2.67289 66.2301L31.0356 15.8361L36.7643 26.0987Z" fill="url(#paint0_radial_12_5)"/>
<path d="M1.59403 84.0155V83.0545H8.30313V84.0155H5.4902V92H4.40696V84.0155H1.59403ZM9.13849 92V85.2909H10.1344V86.3043H10.2043C10.3266 85.9723 10.5479 85.7029 10.8682 85.4962C11.1885 85.2895 11.5496 85.1861 11.9514 85.1861C12.0271 85.1861 12.1218 85.1875 12.2353 85.1904C12.3489 85.1934 12.4348 85.1977 12.493 85.2036V86.2518C12.4581 86.2431 12.378 86.23 12.2528 86.2125C12.1305 86.1922 12.0009 86.182 11.8641 86.182C11.5379 86.182 11.2467 86.2504 10.9905 86.3873C10.7371 86.5212 10.5362 86.7076 10.3877 86.9463C10.2421 87.1822 10.1693 87.4516 10.1693 87.7544V92H9.13849ZM17.9431 89.257V85.2909H18.9739V92H17.9431V90.8643H17.8732C17.7159 91.205 17.4713 91.4948 17.1394 91.7336C16.8074 91.9694 16.3881 92.0874 15.8814 92.0874C15.4621 92.0874 15.0894 91.9956 14.7632 91.8122C14.4371 91.6258 14.1809 91.3463 13.9945 90.9735C13.8081 90.5979 13.715 90.1247 13.715 89.554V85.2909H14.7458V89.4841C14.7458 89.9733 14.8826 90.3635 15.1564 90.6547C15.433 90.9459 15.7853 91.0915 16.2134 91.0915C16.4696 91.0915 16.7303 91.026 16.9952 90.8949C17.2631 90.7639 17.4874 90.563 17.6679 90.2922C17.8513 90.0213 17.9431 89.6763 17.9431 89.257ZM23.6748 92.1398C23.0284 92.1398 22.4708 91.9971 22.0019 91.7117C21.536 91.4234 21.1764 91.0216 20.9231 90.5062C20.6726 89.9879 20.5474 89.3851 20.5474 88.6979C20.5474 88.0107 20.6726 87.405 20.9231 86.8808C21.1764 86.3538 21.5288 85.9432 21.9801 85.6491C22.4344 85.3521 22.9643 85.2036 23.57 85.2036C23.9195 85.2036 24.2645 85.2618 24.6052 85.3783C24.9459 85.4947 25.256 85.684 25.5356 85.9461C25.8151 86.2053 26.0379 86.5489 26.2039 86.9769C26.3698 87.405 26.4528 87.932 26.4528 88.5581V88.9949H21.2812V88.1038H25.4045C25.4045 87.7253 25.3288 87.3875 25.1774 87.0905C25.0289 86.7935 24.8163 86.5591 24.5397 86.3873C24.266 86.2154 23.9427 86.1295 23.57 86.1295C23.1594 86.1295 22.8042 86.2315 22.5043 86.4353C22.2072 86.6362 21.9786 86.8983 21.8185 87.2215C21.6583 87.5447 21.5783 87.8913 21.5783 88.2611V88.8551C21.5783 89.3618 21.6656 89.7913 21.8403 90.1436C22.018 90.4931 22.264 90.7595 22.5785 90.943C22.893 91.1235 23.2584 91.2138 23.6748 91.2138C23.9457 91.2138 24.1903 91.1759 24.4087 91.1002C24.63 91.0216 24.8207 90.9051 24.9809 90.7508C25.141 90.5935 25.2648 90.3984 25.3521 90.1655L26.348 90.445C26.2432 90.7828 26.067 91.0798 25.8195 91.3361C25.572 91.5894 25.2662 91.7874 24.9022 91.9301C24.5382 92.0699 24.1291 92.1398 23.6748 92.1398ZM28.5276 92H27.3919L30.6766 83.0545H31.7948L35.0794 92H33.9438L31.2706 84.4697H31.2007L28.5276 92ZM28.9469 88.5057H33.5245V89.4666H28.9469V88.5057ZM38.8664 92.1398C38.3073 92.1398 37.8137 91.9985 37.3857 91.7161C36.9576 91.4307 36.6228 91.0289 36.3811 90.5105C36.1394 89.9893 36.0185 89.3734 36.0185 88.6629C36.0185 87.9582 36.1394 87.3467 36.3811 86.8284C36.6228 86.3101 36.9591 85.9097 37.3901 85.6272C37.821 85.3448 38.319 85.2036 38.8839 85.2036C39.3207 85.2036 39.6657 85.2763 39.9191 85.4219C40.1753 85.5646 40.3704 85.7277 40.5044 85.9112C40.6412 86.0917 40.7475 86.2402 40.8232 86.3567H40.9106V83.0545H41.9414V92H40.9455V90.9692H40.8232C40.7475 91.0915 40.6398 91.2458 40.5 91.4322C40.3602 91.6156 40.1608 91.7801 39.9016 91.9257C39.6424 92.0684 39.2974 92.1398 38.8664 92.1398ZM39.0062 91.2138C39.4197 91.2138 39.7691 91.106 40.0545 90.8906C40.3398 90.6722 40.5568 90.3708 40.7053 89.9864C40.8538 89.5991 40.928 89.1521 40.928 88.6455C40.928 88.1446 40.8552 87.7064 40.7097 87.3307C40.5641 86.9522 40.3486 86.6581 40.0632 86.4484C39.7778 86.2358 39.4255 86.1295 39.0062 86.1295C38.5694 86.1295 38.2054 86.2417 37.9142 86.4659C37.6259 86.6872 37.409 86.9886 37.2634 87.37C37.1207 87.7486 37.0494 88.1737 37.0494 88.6455C37.0494 89.123 37.1222 89.5569 37.2677 89.9471C37.4163 90.3344 37.6347 90.643 37.9229 90.8731C38.2141 91.1002 38.5752 91.2138 39.0062 91.2138ZM44.1122 92V83.0545H47.2397C47.8628 83.0545 48.3768 83.1623 48.7815 83.3778C49.1863 83.5903 49.4877 83.8772 49.6857 84.2382C49.8837 84.5964 49.9827 84.9939 49.9827 85.4307C49.9827 85.8151 49.9143 86.1325 49.7774 86.3829C49.6435 86.6333 49.4658 86.8313 49.2445 86.9769C49.0261 87.1225 48.7888 87.2303 48.5326 87.3001V87.3875C48.8063 87.405 49.0815 87.5011 49.3581 87.6758C49.6347 87.8505 49.8662 88.1009 50.0526 88.4271C50.239 88.7532 50.3321 89.1521 50.3321 89.6239C50.3321 90.0723 50.2302 90.4756 50.0264 90.8338C49.8225 91.1919 49.5008 91.4759 49.0611 91.6855C48.6214 91.8952 48.0492 92 47.3445 92H44.1122ZM45.1955 91.0391H47.3445C48.0521 91.0391 48.5544 90.9022 48.8514 90.6285C49.1513 90.3518 49.3013 90.017 49.3013 89.6239C49.3013 89.321 49.2241 89.0415 49.0698 88.7852C48.9155 88.5261 48.6956 88.3193 48.4103 88.165C48.1249 88.0077 47.7871 87.9291 47.3969 87.9291H45.1955V91.0391ZM45.1955 86.9857H47.2047C47.5309 86.9857 47.825 86.9216 48.087 86.7935C48.352 86.6653 48.5617 86.4848 48.716 86.2518C48.8733 86.0189 48.9519 85.7452 48.9519 85.4307C48.9519 85.0376 48.815 84.7042 48.5413 84.4304C48.2676 84.1538 47.8337 84.0155 47.2397 84.0155H45.1955V86.9857ZM53.0031 83.0545V92H51.9723V83.0545H53.0031ZM57.6167 92.1398C57.011 92.1398 56.4796 91.9956 56.0224 91.7074C55.5681 91.4191 55.2129 91.0158 54.9566 90.4974C54.7033 89.9791 54.5766 89.3734 54.5766 88.6804C54.5766 87.9815 54.7033 87.3715 54.9566 86.8502C55.2129 86.329 55.5681 85.9243 56.0224 85.636C56.4796 85.3477 57.011 85.2036 57.6167 85.2036C58.2224 85.2036 58.7523 85.3477 59.2066 85.636C59.6638 85.9243 60.019 86.329 60.2724 86.8502C60.5286 87.3715 60.6567 87.9815 60.6567 88.6804C60.6567 89.3734 60.5286 89.9791 60.2724 90.4974C60.019 91.0158 59.6638 91.4191 59.2066 91.7074C58.7523 91.9956 58.2224 92.1398 57.6167 92.1398ZM57.6167 91.2138C58.0768 91.2138 58.4553 91.0958 58.7523 90.86C59.0494 90.6241 59.2692 90.314 59.4119 89.9296C59.5546 89.5452 59.6259 89.1288 59.6259 88.6804C59.6259 88.232 59.5546 87.8141 59.4119 87.4268C59.2692 87.0395 59.0494 86.7265 58.7523 86.4877C58.4553 86.2489 58.0768 86.1295 57.6167 86.1295C57.1566 86.1295 56.7781 86.2489 56.481 86.4877C56.184 86.7265 55.9642 87.0395 55.8215 87.4268C55.6788 87.8141 55.6075 88.232 55.6075 88.6804C55.6075 89.1288 55.6788 89.5452 55.8215 89.9296C55.9642 90.314 56.184 90.6241 56.481 90.86C56.7781 91.0958 57.1566 91.2138 57.6167 91.2138ZM64.9559 92.1398C64.3269 92.1398 63.7853 91.9913 63.331 91.6942C62.8767 91.3972 62.5273 90.9881 62.2827 90.4669C62.0381 89.9456 61.9158 89.3501 61.9158 88.6804C61.9158 87.999 62.041 87.3977 62.2914 86.8765C62.5448 86.3523 62.8971 85.9432 63.3485 85.6491C63.8027 85.3521 64.3327 85.2036 64.9384 85.2036C65.4101 85.2036 65.8353 85.2909 66.2138 85.4656C66.5924 85.6403 66.9025 85.8849 67.1442 86.1994C67.3859 86.5139 67.5358 86.8808 67.5941 87.3001H66.5632C66.4846 86.9944 66.3099 86.7236 66.0391 86.4877C65.7712 86.2489 65.4101 86.1295 64.9559 86.1295C64.554 86.1295 64.2017 86.2344 63.8988 86.444C63.5989 86.6508 63.3645 86.9434 63.1956 87.322C63.0296 87.6976 62.9466 88.1388 62.9466 88.6455C62.9466 89.1638 63.0282 89.6151 63.1912 89.9995C63.3572 90.3839 63.5902 90.6824 63.8901 90.8949C64.1929 91.1075 64.5482 91.2138 64.9559 91.2138C65.2238 91.2138 65.4669 91.1672 65.6853 91.074C65.9037 90.9808 66.0886 90.8469 66.24 90.6722C66.3914 90.4974 66.4992 90.2878 66.5632 90.0432H67.5941C67.5358 90.4392 67.3917 90.7959 67.1616 91.1133C66.9345 91.4278 66.6331 91.6782 66.2575 91.8646C65.8848 92.048 65.4509 92.1398 64.9559 92.1398ZM70.0619 89.554L70.0445 88.2786H70.2541L73.1893 85.2909H74.4648L71.3374 88.4533H71.25L70.0619 89.554ZM69.101 92V83.0545H70.1318V92H69.101ZM73.3641 92L70.7433 88.6804L71.4771 87.9641L74.6744 92H73.3641ZM78.3282 92.1398C77.6817 92.1398 77.1241 91.9971 76.6553 91.7117C76.1894 91.4234 75.8297 91.0216 75.5764 90.5062C75.326 89.9879 75.2008 89.3851 75.2008 88.6979C75.2008 88.0107 75.326 87.405 75.5764 86.8808C75.8297 86.3538 76.1821 85.9432 76.6334 85.6491C77.0877 85.3521 77.6177 85.2036 78.2233 85.2036C78.5728 85.2036 78.9178 85.2618 79.2585 85.3783C79.5992 85.4947 79.9093 85.684 80.1889 85.9461C80.4684 86.2053 80.6912 86.5489 80.8572 86.9769C81.0232 87.405 81.1062 87.932 81.1062 88.5581V88.9949H75.9346V88.1038H80.0579C80.0579 87.7253 79.9821 87.3875 79.8307 87.0905C79.6822 86.7935 79.4696 86.5591 79.193 86.3873C78.9193 86.2154 78.5961 86.1295 78.2233 86.1295C77.8128 86.1295 77.4575 86.2315 77.1576 86.4353C76.8606 86.6362 76.632 86.8983 76.4718 87.2215C76.3117 87.5447 76.2316 87.8913 76.2316 88.2611V88.8551C76.2316 89.3618 76.3189 89.7913 76.4937 90.1436C76.6713 90.4931 76.9173 90.7595 77.2318 90.943C77.5463 91.1235 77.9118 91.2138 78.3282 91.2138C78.599 91.2138 78.8436 91.1759 79.062 91.1002C79.2833 91.0216 79.474 90.9051 79.6342 90.7508C79.7943 90.5935 79.9181 90.3984 80.0054 90.1655L81.0013 90.445C80.8965 90.7828 80.7203 91.0798 80.4728 91.3361C80.2253 91.5894 79.9195 91.7874 79.5555 91.9301C79.1916 92.0699 78.7824 92.1398 78.3282 92.1398ZM82.6742 92V85.2909H83.6701V86.3043H83.74C83.8623 85.9723 84.0836 85.7029 84.4039 85.4962C84.7242 85.2895 85.0853 85.1861 85.4872 85.1861C85.5629 85.1861 85.6575 85.1875 85.7711 85.1904C85.8846 85.1934 85.9705 85.1977 86.0288 85.2036V86.2518C85.9938 86.2431 85.9138 86.23 85.7885 86.2125C85.6662 86.1922 85.5367 86.182 85.3998 86.182C85.0737 86.182 84.7825 86.2504 84.5262 86.3873C84.2729 86.5212 84.072 86.7076 83.9235 86.9463C83.7779 87.1822 83.7051 87.4516 83.7051 87.7544V92H82.6742Z" fill="#FFE0B0"/>
<defs>
<radialGradient id="paint0_radial_12_5" cx="0" cy="0" r="1" gradientUnits="userSpaceOnUse" gradientTransform="translate(43.3228 41.6291) rotate(66.5312) scale(56.8005 64.9671)">
<stop stop-color="#FFAC2F"/>
<stop offset="1" stop-color="white" stop-opacity="0"/>
</radialGradient>
</defs>
</svg>
