<svg width="48" height="48" viewBox="0 0 48 48" fill="none" xmlns="http://www.w3.org/2000/svg">
<path fill-rule="evenodd" clip-rule="evenodd" d="M20.0345 1.00007H20.4232C20.4282 0.999977 20.4332 0.999977 20.4381 1.00007H27.9655L47 34.7255L43.8276 41H4.56897L1 34.7255L20.0345 1.00007ZM35.2169 28.0588L20.3508 2.04886L17.7777 6.60789L21.3211 12.9379L21.3585 12.959L21.3455 12.9815L29.7855 28.0588H35.2169ZM36.2383 28.2519C36.2731 28.3103 36.2931 28.3783 36.2931 28.451C36.2931 28.6676 36.1156 28.8432 35.8966 28.8432H18.8674L15.7383 34.3333H45.8704L27.4999 1.78438H21.1107L36.2383 28.2519ZM19.3145 28.0588H28.8789L24.1398 19.5927L19.3145 28.0588ZM12.3856 40.2157L15.2913 35.1177H45.915L43.3374 40.2157H12.3856ZM23.6918 18.7924C23.6781 18.8092 23.6656 18.8273 23.6545 18.8467L11.4752 40.2157H5.648L20.8856 13.7793L23.6918 18.7924ZM20.4358 12.9758L4.88494 39.9557L1.90912 34.724L17.3226 7.41428L20.4358 12.9758Z" fill="url(#paint0_radial_12_5)"/>
<path d="M1.31392 42.7805V42.2727H4.85938V42.7805H3.37287V47H2.80043V42.7805H1.31392ZM5.30083 47V43.4545H5.8271V43.9901H5.86404C5.92867 43.8146 6.04562 43.6723 6.21489 43.563C6.38416 43.4538 6.57497 43.3991 6.78733 43.3991C6.82734 43.3991 6.87735 43.3999 6.93737 43.4015C6.99738 43.403 7.04278 43.4053 7.07355 43.4084V43.9624C7.05509 43.9577 7.01277 43.9508 6.9466 43.9416C6.88197 43.9308 6.81349 43.9254 6.74117 43.9254C6.56882 43.9254 6.41494 43.9616 6.27952 44.0339C6.14564 44.1047 6.03946 44.2032 5.96098 44.3294C5.88404 44.454 5.84557 44.5964 5.84557 44.7564V47H5.30083ZM9.95366 45.5504V43.4545H10.4984V47H9.95366V46.3999H9.91673C9.83363 46.5799 9.70437 46.733 9.52894 46.8592C9.35352 46.9838 9.13192 47.0462 8.86417 47.0462C8.64258 47.0462 8.44561 46.9977 8.27326 46.9007C8.10091 46.8023 7.96549 46.6545 7.86701 46.4576C7.76853 46.2591 7.71928 46.009 7.71928 45.7074V43.4545H8.26403V45.6705C8.26403 45.929 8.33635 46.1352 8.481 46.2891C8.62719 46.4429 8.81339 46.5199 9.0396 46.5199C9.17501 46.5199 9.31274 46.4853 9.45277 46.416C9.59434 46.3468 9.71283 46.2406 9.80824 46.0975C9.90518 45.9544 9.95366 45.772 9.95366 45.5504ZM12.9826 47.0739C12.641 47.0739 12.3463 46.9985 12.0986 46.8477C11.8524 46.6953 11.6623 46.483 11.5285 46.2106C11.3961 45.9367 11.3299 45.6181 11.3299 45.255C11.3299 44.8918 11.3961 44.5717 11.5285 44.2947C11.6623 44.0162 11.8485 43.7992 12.087 43.6438C12.3271 43.4869 12.6072 43.4084 12.9272 43.4084C13.1119 43.4084 13.2943 43.4392 13.4743 43.5007C13.6543 43.5623 13.8182 43.6623 13.966 43.8008C14.1137 43.9377 14.2314 44.1193 14.3191 44.3455C14.4068 44.5717 14.4507 44.8503 14.4507 45.1811V45.4119H11.7177V44.9411H13.8967C13.8967 44.741 13.8567 44.5625 13.7767 44.4055C13.6982 44.2486 13.5859 44.1247 13.4397 44.0339C13.295 43.9431 13.1242 43.8977 12.9272 43.8977C12.7103 43.8977 12.5225 43.9516 12.364 44.0593C12.2071 44.1655 12.0863 44.304 12.0016 44.4748C11.917 44.6456 11.8747 44.8287 11.8747 45.0241V45.3381C11.8747 45.6058 11.9209 45.8328 12.0132 46.019C12.1071 46.2037 12.2371 46.3445 12.4033 46.4414C12.5695 46.5368 12.7626 46.5845 12.9826 46.5845C13.1258 46.5845 13.255 46.5645 13.3704 46.5245C13.4874 46.483 13.5882 46.4214 13.6728 46.3398C13.7574 46.2567 13.8228 46.1536 13.869 46.0305L14.3953 46.1783C14.3399 46.3568 14.2468 46.5137 14.116 46.6491C13.9852 46.783 13.8236 46.8877 13.6313 46.9631C13.4389 47.0369 13.2227 47.0739 12.9826 47.0739ZM15.5471 47H14.947L16.6828 42.2727H17.2737L19.0095 47H18.4093L16.9967 43.0206H16.9597L15.5471 47ZM15.7687 45.1534H18.1877V45.6612H15.7687V45.1534ZM21.0107 47.0739C20.7152 47.0739 20.4544 46.9992 20.2282 46.85C20.002 46.6992 19.825 46.4868 19.6973 46.2129C19.5696 45.9374 19.5057 45.612 19.5057 45.2365C19.5057 44.8641 19.5696 44.541 19.6973 44.267C19.825 43.9931 20.0028 43.7815 20.2305 43.6323C20.4583 43.483 20.7214 43.4084 21.0199 43.4084C21.2508 43.4084 21.4331 43.4469 21.567 43.5238C21.7024 43.5992 21.8055 43.6854 21.8763 43.7823C21.9486 43.8777 22.0048 43.9562 22.0448 44.0178H22.091V42.2727H22.6357V47H22.1094V46.4553H22.0448C22.0048 46.5199 21.9478 46.6014 21.874 46.6999C21.8001 46.7969 21.6947 46.8838 21.5578 46.9608C21.4208 47.0362 21.2384 47.0739 21.0107 47.0739ZM21.0846 46.5845C21.3031 46.5845 21.4877 46.5276 21.6385 46.4137C21.7893 46.2983 21.904 46.139 21.9825 45.9359C22.0609 45.7312 22.1002 45.495 22.1002 45.2273C22.1002 44.9626 22.0617 44.731 21.9848 44.5325C21.9078 44.3324 21.794 44.177 21.6432 44.0662C21.4924 43.9539 21.3062 43.8977 21.0846 43.8977C20.8537 43.8977 20.6614 43.957 20.5075 44.0755C20.3552 44.1924 20.2405 44.3517 20.1636 44.5533C20.0882 44.7533 20.0505 44.978 20.0505 45.2273C20.0505 45.4796 20.0889 45.7089 20.1659 45.9151C20.2444 46.1198 20.3598 46.2829 20.5121 46.4045C20.666 46.5245 20.8568 46.5845 21.0846 46.5845ZM23.7829 47V42.2727H25.4356C25.7649 42.2727 26.0365 42.3297 26.2504 42.4435C26.4643 42.5559 26.6236 42.7074 26.7282 42.8983C26.8328 43.0875 26.8852 43.2976 26.8852 43.5284C26.8852 43.7315 26.849 43.8993 26.7767 44.0316C26.7059 44.1639 26.612 44.2686 26.4951 44.3455C26.3797 44.4225 26.2542 44.4794 26.1188 44.5163V44.5625C26.2635 44.5717 26.4089 44.6225 26.5551 44.7148C26.7013 44.8072 26.8236 44.9395 26.9221 45.1119C27.0206 45.2842 27.0698 45.495 27.0698 45.7443C27.0698 45.9813 27.016 46.1944 26.9082 46.3837C26.8005 46.573 26.6305 46.723 26.3981 46.8338C26.1658 46.9446 25.8634 47 25.491 47H23.7829ZM24.3553 46.4922H25.491C25.8649 46.4922 26.1304 46.4199 26.2873 46.2752C26.4458 46.129 26.5251 45.9521 26.5251 45.7443C26.5251 45.5843 26.4843 45.4366 26.4027 45.3011C26.3212 45.1642 26.205 45.0549 26.0542 44.9734C25.9034 44.8903 25.7249 44.8487 25.5187 44.8487H24.3553V46.4922ZM24.3553 44.3501H25.4171C25.5895 44.3501 25.7449 44.3163 25.8834 44.2486C26.0234 44.1809 26.1342 44.0855 26.2158 43.9624C26.2989 43.8393 26.3404 43.6946 26.3404 43.5284C26.3404 43.3207 26.2681 43.1445 26.1234 42.9998C25.9788 42.8536 25.7495 42.7805 25.4356 42.7805H24.3553V44.3501ZM28.4813 42.2727V47H27.9366V42.2727H28.4813ZM30.9194 47.0739C30.5993 47.0739 30.3185 46.9977 30.0769 46.8453C29.8368 46.693 29.6491 46.4799 29.5137 46.206C29.3798 45.9321 29.3129 45.612 29.3129 45.2457C29.3129 44.8764 29.3798 44.554 29.5137 44.2786C29.6491 44.0031 29.8368 43.7892 30.0769 43.6369C30.3185 43.4846 30.5993 43.4084 30.9194 43.4084C31.2395 43.4084 31.5195 43.4846 31.7596 43.6369C32.0012 43.7892 32.1889 44.0031 32.3228 44.2786C32.4582 44.554 32.5259 44.8764 32.5259 45.2457C32.5259 45.612 32.4582 45.9321 32.3228 46.206C32.1889 46.4799 32.0012 46.693 31.7596 46.8453C31.5195 46.9977 31.2395 47.0739 30.9194 47.0739ZM30.9194 46.5845C31.1625 46.5845 31.3626 46.5222 31.5195 46.3975C31.6765 46.2729 31.7927 46.109 31.8681 45.9059C31.9435 45.7028 31.9812 45.4827 31.9812 45.2457C31.9812 45.0088 31.9435 44.7879 31.8681 44.5833C31.7927 44.3786 31.6765 44.2132 31.5195 44.087C31.3626 43.9608 31.1625 43.8977 30.9194 43.8977C30.6763 43.8977 30.4762 43.9608 30.3192 44.087C30.1623 44.2132 30.0461 44.3786 29.9707 44.5833C29.8953 44.7879 29.8576 45.0088 29.8576 45.2457C29.8576 45.4827 29.8953 45.7028 29.9707 45.9059C30.0461 46.109 30.1623 46.2729 30.3192 46.3975C30.4762 46.5222 30.6763 46.5845 30.9194 46.5845ZM34.7978 47.0739C34.4654 47.0739 34.1792 46.9954 33.9391 46.8384C33.6991 46.6815 33.5144 46.4653 33.3852 46.1898C33.2559 45.9144 33.1913 45.5997 33.1913 45.2457C33.1913 44.8857 33.2574 44.5679 33.3898 44.2924C33.5237 44.0154 33.7099 43.7992 33.9484 43.6438C34.1884 43.4869 34.4685 43.4084 34.7886 43.4084C35.0379 43.4084 35.2625 43.4545 35.4626 43.5469C35.6626 43.6392 35.8265 43.7685 35.9542 43.9347C36.082 44.1009 36.1612 44.2947 36.192 44.5163H35.6472C35.6057 44.3548 35.5134 44.2116 35.3703 44.087C35.2287 43.9608 35.0379 43.8977 34.7978 43.8977C34.5854 43.8977 34.3993 43.9531 34.2392 44.0639C34.0807 44.1732 33.9568 44.3278 33.8676 44.5279C33.7799 44.7264 33.736 44.9595 33.736 45.2273C33.736 45.5012 33.7791 45.7397 33.8653 45.9428C33.953 46.146 34.0761 46.3037 34.2346 46.416C34.3946 46.5283 34.5824 46.5845 34.7978 46.5845C34.9394 46.5845 35.0679 46.5599 35.1833 46.5107C35.2987 46.4614 35.3964 46.3906 35.4764 46.2983C35.5564 46.206 35.6134 46.0952 35.6472 45.9659H36.192C36.1612 46.1752 36.085 46.3637 35.9635 46.5314C35.8434 46.6976 35.6842 46.83 35.4857 46.9284C35.2887 47.0254 35.0594 47.0739 34.7978 47.0739ZM37.4961 45.7074L37.4869 45.0334H37.5977L39.1488 43.4545H39.8228L38.1701 45.1257H38.124L37.4961 45.7074ZM36.9883 47V42.2727H37.5331V47H36.9883ZM39.2412 47L37.8562 45.2457L38.244 44.8672L39.9336 47H39.2412ZM41.8645 47.0739C41.5229 47.0739 41.2282 46.9985 40.9804 46.8477C40.7342 46.6953 40.5442 46.483 40.4103 46.2106C40.278 45.9367 40.2118 45.6181 40.2118 45.255C40.2118 44.8918 40.278 44.5717 40.4103 44.2947C40.5442 44.0162 40.7304 43.7992 40.9689 43.6438C41.2089 43.4869 41.489 43.4084 41.8091 43.4084C41.9937 43.4084 42.1761 43.4392 42.3561 43.5007C42.5362 43.5623 42.7001 43.6623 42.8478 43.8008C42.9955 43.9377 43.1132 44.1193 43.201 44.3455C43.2887 44.5717 43.3325 44.8503 43.3325 45.1811V45.4119H40.5996V44.9411H42.7785C42.7785 44.741 42.7385 44.5625 42.6585 44.4055C42.58 44.2486 42.4677 44.1247 42.3215 44.0339C42.1769 43.9431 42.0061 43.8977 41.8091 43.8977C41.5921 43.8977 41.4044 43.9516 41.2459 44.0593C41.0889 44.1655 40.9681 44.304 40.8835 44.4748C40.7988 44.6456 40.7565 44.8287 40.7565 45.0241V45.3381C40.7565 45.6058 40.8027 45.8328 40.895 46.019C40.9889 46.2037 41.1189 46.3445 41.2851 46.4414C41.4513 46.5368 41.6444 46.5845 41.8645 46.5845C42.0076 46.5845 42.1369 46.5645 42.2523 46.5245C42.3692 46.483 42.47 46.4214 42.5546 46.3398C42.6393 46.2567 42.7047 46.1536 42.7508 46.0305L43.2771 46.1783C43.2217 46.3568 43.1286 46.5137 42.9978 46.6491C42.867 46.783 42.7054 46.8877 42.5131 46.9631C42.3207 47.0369 42.1045 47.0739 41.8645 47.0739ZM44.1612 47V43.4545H44.6875V43.9901H44.7244C44.789 43.8146 44.906 43.6723 45.0752 43.563C45.2445 43.4538 45.4353 43.3991 45.6477 43.3991C45.6877 43.3991 45.7377 43.3999 45.7977 43.4015C45.8577 43.403 45.9031 43.4053 45.9339 43.4084V43.9624C45.9154 43.9577 45.8731 43.9508 45.807 43.9416C45.7423 43.9308 45.6738 43.9254 45.6015 43.9254C45.4292 43.9254 45.2753 43.9616 45.1399 44.0339C45.006 44.1047 44.8998 44.2032 44.8213 44.3294C44.7444 44.454 44.7059 44.5964 44.7059 44.7564V47H44.1612Z" fill="#FFE0B0"/>
<defs>
<radialGradient id="paint0_radial_12_5" cx="0" cy="0" r="1" gradientUnits="userSpaceOnUse" gradientTransform="translate(24 21.3921) rotate(66.4726) scale(30.7953 35.2902)">
<stop stop-color="#FFAC2F"/>
<stop offset="1" stop-color="white" stop-opacity="0"/>
</radialGradient>
</defs>
</svg>
