<svg width="48" height="48" viewBox="0 0 48 48" fill="none" xmlns="http://www.w3.org/2000/svg">
<g clip-path="url(#clip0_106_3199)">
<path d="M34.2815 14.4893L25.0388 0.869335C24.2362 -0.310665 22.9615 -0.286665 22.2028 0.918669L13.6828 14.44C12.9242 15.6453 13.4415 16.632 14.8362 16.632H17.3335V21.3333C17.3335 22.0406 17.6145 22.7189 18.1146 23.219C18.6147 23.7191 19.2929 24 20.0002 24H28.0002C28.7074 24 29.3857 23.7191 29.8858 23.219C30.3859 22.7189 30.6668 22.0406 30.6668 21.3333V16.6333H33.1975C34.5935 16.6333 35.0828 15.6693 34.2815 14.4893ZM4.86817 31.4333H1.91751C0.617505 31.4333 0.0761719 30.484 0.0761719 29.5653C0.0761719 28.6187 0.753505 27.7 1.91751 27.7H11.8762C13.0415 27.7 13.7175 28.6187 13.7175 29.5653C13.7175 30.4853 13.1762 31.4333 11.8762 31.4333H8.92817V45.0187C8.92817 46.3733 8.06284 47.1307 6.89884 47.1307C5.73484 47.1307 4.86951 46.3733 4.86951 45.0187L4.86817 31.4333ZM13.8615 37.3333C13.8615 31.704 17.6495 27.372 23.1708 27.372C28.6095 27.372 32.4815 31.84 32.4815 37.3333C32.4815 42.9347 28.7202 47.2947 23.1708 47.2947C17.6762 47.2947 13.8615 42.9347 13.8615 37.3333ZM28.2588 37.3333C28.2588 34.0587 26.5535 31.1067 23.1708 31.1067C19.7882 31.1067 18.0828 34.0587 18.0828 37.3333C18.0828 40.6347 19.7348 43.5573 23.1708 43.5573C26.6082 43.5573 28.2588 40.6347 28.2588 37.3333ZM34.1695 29.808C34.1695 28.536 34.9282 27.6987 36.2828 27.6987H41.0708C45.0508 27.6987 48.0002 30.2947 48.0002 34.1667C48.0002 38.1173 44.9428 40.5813 41.2348 40.5813H38.2308V45.02C38.2308 46.3747 37.3655 47.132 36.2028 47.132C35.0375 47.132 34.1708 46.3747 34.1708 45.02L34.1695 29.808ZM38.2308 37.008H40.9922C42.6948 37.008 43.7775 35.7627 43.7775 34.14C43.7775 32.5147 42.6948 31.2707 40.9922 31.2707H38.2308V37.008Z" fill="#9852F2"/>
</g>
<defs>
<clipPath id="clip0_106_3199">
<rect width="48" height="48" fill="white"/>
</clipPath>
</defs>
</svg>
