<svg width="25" height="24" viewBox="0 0 25 24" fill="none" xmlns="http://www.w3.org/2000/svg">
<path d="M23.4779 9.70998C23.5283 8.27864 23.2088 6.858 22.549 5.57998C22.1012 5.05558 21.4799 4.70169 20.7932 4.57998C17.9529 4.32751 15.1009 4.22403 12.2493 4.26998C9.4081 4.22194 6.56631 4.32208 3.73599 4.56998C3.17642 4.6697 2.65858 4.92683 2.24565 5.30998C1.32695 6.13998 1.22487 7.55998 1.1228 8.75998C0.974693 10.9175 0.974693 13.0824 1.1228 15.24C1.15233 15.9154 1.25498 16.5858 1.42903 17.24C1.55211 17.745 1.80113 18.2123 2.15378 18.6C2.56951 19.0034 3.09942 19.2752 3.67474 19.38C5.87546 19.6461 8.0929 19.7564 10.3098 19.71C13.8825 19.76 17.0163 19.71 20.7218 19.43C21.3112 19.3316 21.856 19.0595 22.2836 18.65C22.5693 18.3699 22.7828 18.0271 22.9062 17.65C23.2713 16.5526 23.4506 15.4041 23.437 14.25C23.4779 13.69 23.4779 10.31 23.4779 9.70998ZM9.94233 14.85V8.65998L15.9853 11.77C14.2908 12.69 12.0553 13.73 9.94233 14.85Z" fill="#9852F2"/>
</svg>
