<svg width="45" height="45" viewBox="0 0 45 45" fill="none" xmlns="http://www.w3.org/2000/svg">
<g clip-path="url(#clip0_106_3227)">
<path d="M12.1275 26.8158C14.5125 31.5093 19.5593 34.3713 24.7815 33.3926L19.008 44.7168C13.709 43.8913 8.88005 41.1974 5.39397 37.1221C1.90788 33.0467 -0.00536202 27.8588 1.12874e-05 22.4958C1.12874e-05 17.9508 1.35676 13.7096 3.66751 10.1681L12.1275 26.8158ZM33.7455 3.01305C37.5356 5.20246 40.6065 8.4477 42.5835 12.3528L23.9535 11.3741C18.6795 11.0726 13.6575 14.0358 11.925 19.0061L4.99501 8.3613C7.09503 5.75939 9.74904 3.65871 12.7637 2.21231C15.7783 0.765909 19.0776 0.0102216 22.4213 0.000302501C26.3971 -0.0203857 30.3063 1.02043 33.7455 3.0153V3.01305ZM30.078 22.5003C30.0789 23.4963 29.8834 24.4827 29.5026 25.403C29.1219 26.3234 28.5634 27.1596 27.8591 27.8639C27.1549 28.5682 26.3186 29.1267 25.3983 29.5074C24.4779 29.8882 23.4915 30.0837 22.4955 30.0828C21.4995 30.0837 20.5131 29.8882 19.5928 29.5074C18.6724 29.1267 17.8362 28.5682 17.1319 27.8639C16.4276 27.1596 15.8691 26.3234 15.4884 25.403C15.1076 24.4827 14.9121 23.4963 14.913 22.5003C14.9121 21.5043 15.1076 20.5179 15.4884 19.5976C15.8691 18.6772 16.4276 17.841 17.1319 17.1367C17.8362 16.4324 18.6724 15.8739 19.5928 15.4932C20.5131 15.1124 21.4995 14.9169 22.4955 14.9178C23.4915 14.9169 24.4779 15.1124 25.3983 15.4932C26.3186 15.8739 27.1549 16.4324 27.8591 17.1367C28.5634 17.841 29.1219 18.6772 29.5026 19.5976C29.8834 20.5179 30.0789 21.5043 30.078 22.5003ZM33.7455 41.9808C29.9582 44.1745 25.6122 45.2131 21.2423 44.9688L31.4123 29.3291C34.299 24.8831 34.2473 19.0848 30.807 15.0663L43.488 14.4138C45.4187 19.4156 45.4979 24.9427 43.7114 29.9978C41.9249 35.0529 38.3903 39.3029 33.7455 41.9808Z" fill="#9852F2"/>
</g>
<defs>
<clipPath id="clip0_106_3227">
<rect width="45" height="45" fill="white"/>
</clipPath>
</defs>
</svg>
