<svg width="66" height="66" viewBox="0 0 66 66" fill="none" xmlns="http://www.w3.org/2000/svg">
<g clip-path="url(#clip0_106_3549)">
<path d="M33 66.0005C51.2254 66.0005 66 51.2259 66 33.0005C66 14.7751 51.2254 0.000488281 33 0.000488281C14.7746 0.000488281 0 14.7751 0 33.0005C0 51.2259 14.7746 66.0005 33 66.0005Z" fill="#DA0000"/>
<path d="M54.0809 22.4111C53.8302 21.473 53.3367 20.6175 52.6501 19.9309C51.9634 19.2442 51.1079 18.7507 50.1698 18.5C46.7574 17.6005 33 17.6005 33 17.6005C33 17.6005 19.2427 17.6005 15.8107 18.5196C14.8725 18.7702 14.0171 19.2638 13.3304 19.9504C12.6438 20.637 12.1503 21.4925 11.8996 22.4307C10.9805 25.8529 10.9805 33.02 10.9805 33.02C10.9805 33.02 10.9805 40.1774 11.8996 43.6094C12.1503 44.5475 12.6438 45.403 13.3304 46.0896C14.0171 46.7763 14.8725 47.2698 15.8107 47.5205C19.2427 48.4005 33 48.4005 33 48.4005C33 48.4005 46.7574 48.4005 50.1894 47.4814C51.1275 47.2307 51.983 46.7372 52.6696 46.0505C53.3563 45.3639 53.8498 44.5084 54.1005 43.5702C55.0196 40.148 55.0196 32.9809 55.0196 32.9809C55.0196 32.9809 55 25.8431 54.0809 22.4111ZM28.6 39.6005V26.4005L40.0302 33.0005L28.6 39.6005Z" fill="white"/>
</g>
<defs>
<clipPath id="clip0_106_3549">
<rect width="66" height="66" fill="white" transform="translate(0 0.000488281)"/>
</clipPath>
</defs>
</svg>
