<svg width="66" height="66" viewBox="0 0 66 66" fill="none" xmlns="http://www.w3.org/2000/svg">
<g clip-path="url(#clip0_106_3529)">
<path d="M33 0.000244141C26.4732 0.000244141 20.093 1.93566 14.6662 5.56175C9.23938 9.18783 5.00968 14.3417 2.51199 20.3717C0.0142984 26.4017 -0.639212 33.0368 0.634101 39.4382C1.90741 45.8396 5.05036 51.7196 9.66549 56.3348C14.2806 60.9499 20.1607 64.0928 26.562 65.3662C32.9634 66.6395 39.5986 65.986 45.6286 63.4883C51.6585 60.9906 56.8124 56.7609 60.4385 51.3341C64.0646 45.9072 66 39.527 66 33.0002C66 24.2481 62.5232 15.8544 56.3345 9.66572C50.1458 3.47702 41.7522 0.000244141 33 0.000244141ZM48.1556 47.5985C48.0147 47.8294 47.8298 48.0303 47.6113 48.1897C47.3928 48.349 47.145 48.4638 46.8821 48.5274C46.6192 48.5909 46.3464 48.6021 46.0792 48.5601C45.812 48.5182 45.5557 48.424 45.3249 48.2829C37.576 43.5456 27.8227 42.4749 16.3338 45.1002C15.8131 45.1933 15.2765 45.0822 14.8355 44.7902C14.3944 44.4981 14.0828 44.0475 13.9652 43.5317C13.8475 43.016 13.933 42.4748 14.2038 42.0204C14.4746 41.566 14.91 41.2333 15.4196 41.0914C27.9889 38.2167 38.7738 39.4536 47.4711 44.7678C47.9332 45.0563 48.2624 45.5158 48.387 46.0461C48.5116 46.5764 48.4213 47.1344 48.136 47.5985H48.1556ZM52.1742 38.6225C51.8164 39.2033 51.2429 39.6186 50.5793 39.7772C49.9158 39.9357 49.2164 39.8246 48.6347 39.4682C39.7662 34.0171 26.2436 32.438 15.752 35.6256C15.4288 35.7238 15.0893 35.7574 14.7531 35.7245C14.4168 35.6915 14.0904 35.5926 13.7923 35.4335C13.4943 35.2744 13.2305 35.0581 13.0161 34.7971C12.8016 34.536 12.6407 34.2353 12.5425 33.912C12.4442 33.5888 12.4106 33.2493 12.4436 32.9131C12.4765 32.5768 12.5754 32.2504 12.7345 31.9524C12.8936 31.6543 13.1099 31.3905 13.371 31.1761C13.632 30.9616 13.9328 30.8007 14.256 30.7025C26.2387 27.0651 41.1449 28.8251 51.3236 35.1025C51.8999 35.4593 52.3124 36.0289 52.4716 36.6878C52.6309 37.3467 52.524 38.0418 52.1742 38.6225ZM52.5213 29.2651C41.8831 22.9389 24.3369 22.3571 14.1778 25.4225C13.4308 25.5642 12.6578 25.4251 12.0071 25.0318C11.3564 24.6385 10.8739 24.0188 10.6521 23.2916C10.4303 22.5644 10.4848 21.7809 10.8053 21.0914C11.1257 20.4019 11.6895 19.8551 12.3885 19.5558C24.0485 16.0162 43.4231 16.7007 55.6698 23.9558C56.3739 24.3733 56.8832 25.0534 57.0858 25.8465C57.2885 26.6395 57.1677 27.4806 56.7502 28.1847C56.3327 28.8888 55.6526 29.3981 54.8596 29.6007C54.0665 29.8034 53.2254 29.6826 52.5213 29.2651Z" fill="#00D859"/>
<path d="M48.136 47.5985C47.9952 47.8294 47.8102 48.0303 47.5917 48.1897C47.3732 48.3491 47.1254 48.4638 46.8625 48.5274C46.5996 48.591 46.3268 48.6021 46.0596 48.5601C45.7924 48.5182 45.5361 48.424 45.3053 48.2829C37.5564 43.5456 27.8031 42.4749 16.3142 45.1003C15.7935 45.1933 15.2569 45.0823 14.8159 44.7902C14.3748 44.4981 14.0632 44.0475 13.9456 43.5318C13.828 43.016 13.9134 42.4748 14.1842 42.0204C14.455 41.566 14.8904 41.2333 15.4 41.0914C27.9693 38.2167 38.7542 39.4536 47.4515 44.7678C47.9169 45.0531 48.2502 45.5112 48.3785 46.0418C48.5067 46.5723 48.4196 47.1321 48.136 47.5985Z" fill="#010201"/>
<path d="M52.1741 38.6224C51.8163 39.2033 51.2427 39.6186 50.5792 39.7771C49.9156 39.9357 49.2163 39.8246 48.6345 39.4682C39.7661 34.0171 26.2434 32.438 15.7518 35.6255C15.4286 35.7238 15.0892 35.7574 14.7529 35.7244C14.4167 35.6915 14.0902 35.5926 13.7922 35.4335C13.4941 35.2744 13.2304 35.0581 13.0159 34.797C12.8015 34.536 12.6405 34.2352 12.5423 33.912C12.4441 33.5887 12.4105 33.2493 12.4434 32.913C12.4764 32.5768 12.5752 32.2504 12.7343 31.9523C12.8935 31.6543 13.1097 31.3905 13.3708 31.176C13.6318 30.9616 13.9326 30.8007 14.2558 30.7024C26.2385 27.0651 41.1447 28.8251 51.3234 35.1024C51.8997 35.4593 52.3122 36.0289 52.4715 36.6878C52.6307 37.3467 52.5239 38.0418 52.1741 38.6224Z" fill="#010201"/>
<path d="M52.5215 29.2553C41.8833 22.9389 24.3371 22.3571 14.178 25.4224C13.431 25.5641 12.658 25.425 12.0073 25.0318C11.3566 24.6385 10.8741 24.0188 10.6523 23.2916C10.4305 22.5643 10.485 21.7808 10.8055 21.0913C11.1259 20.4019 11.6897 19.855 12.3887 19.5558C24.0487 16.0162 43.4233 16.7006 55.67 23.9558C56.3741 24.3733 56.8834 25.0534 57.086 25.8464C57.2887 26.6395 57.1679 27.4806 56.7504 28.1846C56.3329 28.8887 55.6528 29.3981 54.8598 29.6007C54.0667 29.8033 53.2256 29.6826 52.5215 29.2651V29.2553Z" fill="#010201"/>
</g>
<defs>
<clipPath id="clip0_106_3529">
<rect width="66" height="66" fill="white" transform="translate(0 0.000244141)"/>
</clipPath>
</defs>
</svg>
