<svg width="66" height="66" viewBox="0 0 66 66" fill="none" xmlns="http://www.w3.org/2000/svg">
<path d="M33 66.0005C51.2254 66.0005 66 51.2259 66 33.0005C66 14.7751 51.2254 0.000488281 33 0.000488281C14.7746 0.000488281 0 14.7751 0 33.0005C0 51.2259 14.7746 66.0005 33 66.0005Z" fill="#9146FF"/>
<path d="M49.2946 33.817L42.7777 40.3338H36.2608L30.5555 46.0392V40.3338H23.2222V15.8894H49.2946V33.817Z" fill="white"/>
<path d="M21.5941 12.6285L13.4443 20.7783V50.1117H23.2221V58.2614L31.3719 50.1117H37.8888L52.5554 35.445V12.6285H21.5941ZM49.2946 33.817L42.7777 40.3339H36.2608L30.5554 46.0392V40.3339H23.2221V15.8894H49.2946V33.817Z" fill="black"/>
<path d="M44.4108 21.5947H41.1499V31.3725H44.4108V21.5947Z" fill="black"/>
<path d="M35.4445 21.5947H32.1836V31.3725H35.4445V21.5947Z" fill="black"/>
</svg>
